<svg width="117" height="20" viewBox="0 0 117 20" fill="none" xmlns="http://www.w3.org/2000/svg">
<g clip-path="url(#clip0_18686_1938)">
<path d="M0.373047 14.1856V12.8792H4.82312V14.538C4.81607 14.7531 4.8553 14.9673 4.93814 15.166C5.02098 15.3647 5.1455 15.5433 5.3033 15.6898C5.46109 15.8362 5.64848 15.9471 5.8528 16.0149C6.05713 16.0827 6.27363 16.1059 6.48767 16.0828C6.85266 16.1285 7.22144 16.0345 7.51998 15.8196C7.81851 15.6047 8.02471 15.2848 8.09719 14.9242C8.21638 14.5055 8.20628 14.0606 8.06822 13.6478C7.20505 11.4252 1.32022 10.4162 0.573874 6.94226C0.42147 6.17821 0.411976 5.39253 0.545874 4.62502C1.0045 1.8366 3.38739 0.827637 6.34381 0.827637C8.69774 0.827637 11.9438 1.39246 11.9438 5.13191V6.34943H7.80753V5.2806C7.82322 5.07331 7.79386 4.86507 7.72146 4.6702C7.64907 4.47532 7.53535 4.29843 7.38812 4.15166C7.24089 4.00489 7.06364 3.89172 6.86854 3.81994C6.67344 3.74815 6.46512 3.71944 6.25787 3.73577C5.90484 3.70064 5.55161 3.80066 5.26941 4.01567C4.9872 4.23069 4.79701 4.5447 4.73719 4.8944C4.6908 5.19031 4.70063 5.49232 4.76615 5.7846C5.24891 7.7726 11.5412 8.84239 12.2296 12.4341C12.402 13.3655 12.4115 14.3198 12.2576 15.2544C11.855 18.1036 9.38712 19.1725 6.40174 19.1725C3.2696 19.1725 0.373047 18.0138 0.373047 14.1856ZM54.2846 14.1257V12.8203H58.6768V14.453C58.6662 14.6666 58.7021 14.88 58.7819 15.0785C58.8617 15.2769 58.9835 15.4557 59.1391 15.6025C59.2946 15.7494 59.4801 15.8607 59.6828 15.929C59.8856 15.9972 60.1007 16.0207 60.3133 15.9978C60.6743 16.0485 61.041 15.9602 61.3395 15.7509C61.6379 15.5416 61.8457 15.2268 61.9209 14.8701C62.0399 14.4613 62.0301 14.0257 61.8929 13.6227C61.0597 11.4271 55.2308 10.4181 54.4864 6.94419C54.3341 6.1909 54.3242 5.41572 54.4575 4.65881C54.917 1.8984 57.2999 0.893292 60.1984 0.893292C62.5244 0.893292 65.7395 1.48708 65.7395 5.16764V6.35522H61.6342V5.31053C61.6505 5.10558 61.6226 4.89952 61.5523 4.70631C61.482 4.5131 61.3709 4.33727 61.2267 4.19075C61.0825 4.04423 60.9084 3.93044 60.7163 3.8571C60.5243 3.78376 60.3186 3.75259 60.1135 3.76571C59.7672 3.72492 59.4187 3.81948 59.1405 4.02962C58.8624 4.23977 58.6761 4.54925 58.6208 4.89343C58.574 5.18928 58.5835 5.49131 58.6488 5.78364C59.1074 7.77357 65.3369 8.81246 66.0282 12.3743C66.2004 13.2956 66.2099 14.24 66.0562 15.1646C65.6546 18.0148 63.2147 19.0537 60.2583 19.0537C57.1561 19.0537 54.2846 17.896 54.2846 14.1257ZM70.0158 14.7504C69.9754 14.3753 69.9657 13.9975 69.9868 13.6207V1.3326H74.1782V14.0069C74.1728 14.2252 74.1821 14.4436 74.2062 14.6606C74.2913 15.0153 74.4934 15.331 74.7799 15.5568C75.0663 15.7826 75.4205 15.9054 75.7853 15.9054C76.15 15.9054 76.5042 15.7826 76.7906 15.5568C77.0771 15.331 77.2792 15.0153 77.3644 14.6606C77.3892 14.4437 77.3989 14.2252 77.3933 14.0069V1.3326H81.5846V13.6207C81.5846 13.9481 81.5557 14.5708 81.5557 14.7494C81.266 17.954 78.8281 18.9977 75.7857 18.9977C72.7434 18.9977 70.3035 17.9549 70.0158 14.7494V14.7504ZM104.522 14.5718C104.48 14.1974 104.461 13.8208 104.465 13.4441V6.23453C104.465 5.93715 104.493 5.40322 104.522 5.10584C104.895 1.90129 107.393 0.891361 110.35 0.891361C113.279 0.891361 115.861 1.90033 116.149 5.10584C116.184 5.48103 116.193 5.8581 116.177 6.23453V6.7984H111.987V5.84833C111.987 5.62918 111.968 5.41041 111.93 5.19467C111.828 4.83509 111.612 4.51852 111.314 4.29307C111.016 4.06762 110.653 3.94563 110.279 3.94563C109.905 3.94563 109.542 4.06762 109.244 4.29307C108.946 4.51852 108.729 4.83509 108.628 5.19467C108.579 5.45856 108.56 5.727 108.571 5.99509V13.8322C108.566 14.0505 108.576 14.2688 108.6 14.4858C108.694 14.8686 108.923 15.2049 109.244 15.4336C109.565 15.6623 109.958 15.7683 110.35 15.7323C110.736 15.7693 111.123 15.6626 111.435 15.4326C111.748 15.2027 111.964 14.8656 112.044 14.4858C112.082 14.2702 112.092 14.0504 112.073 13.8322V11.3354H110.379V8.84143H116.235V13.4421C116.239 13.8189 116.22 14.1955 116.177 14.5698C115.888 17.6865 113.281 18.7853 110.349 18.7853C107.418 18.7853 104.809 17.6875 104.522 14.5718ZM46.1086 18.4599L45.9889 2.60902L43.1184 18.4599H38.9271L36.0846 2.60902L35.9707 18.4599H31.8364L32.1801 1.36253H38.9271L41.0213 14.7195L43.1184 1.36253H49.8645L50.2372 18.4599H46.1086ZM24.061 18.4599L21.8182 2.60902L19.5202 18.4599H15.0431L18.0845 1.36253H25.463L28.5063 18.4599H24.061ZM94.2204 18.2823L90.0542 4.06405L90.284 18.2823H86.2075V1.36253H92.3511L96.2557 15.1356L96.0249 1.36253H100.129V18.2823H94.2204Z" fill="white"/>
</g>
<defs>
<clipPath id="clip0_18686_1938">
<rect width="117" height="20" fill="white"/>
</clipPath>
</defs>
</svg>
