<svg width="67" height="42" viewBox="0 0 67 42" fill="none" xmlns="http://www.w3.org/2000/svg">
<g clip-path="url(#clip0_22237_3695)">
<path fill-rule="evenodd" clip-rule="evenodd" d="M33.2232 12.0709L40.2925 0H60.1578V12.7902H57.0685L66.0473 12.8153V26.9619H57.0685V27.5665H60.3506V39.9685H38.4323V33.3388L33.214 41.9951L27.9828 33.3734V39.9685H6.06418V27.5665H9.34697V26.9619H0.368164V12.8125H9.34697L6.25761 12.7902V0H26.1197L33.2232 12.0709Z" fill="white"/>
<path fill-rule="evenodd" clip-rule="evenodd" d="M26.1607 28.5268L24.6279 26.0019H23.7464L23.7453 28.5268H26.1607ZM40.2162 28.5268H42.6701V26.0019H41.7388L40.2162 28.5268ZM10.3021 13.7728V11.8302H7.21269V0.960327H25.5747L33.1149 13.7728H33.335L40.8386 0.960327H59.2028V11.8302H56.1131V13.7731H65.0922V26.0019H56.1131V28.5268H59.3962V39.0081H39.388V29.9019L33.2114 40.146L27.0274 29.9559V39.0081H7.01925V28.5268H10.3021V26.0019H1.32324V13.7728H10.3021Z" fill="#10132C"/>
<path fill-rule="evenodd" clip-rule="evenodd" d="M22.4466 19.8911L33.2078 37.6253L43.9724 19.7697V29.8366H40.69V37.6991H58.0929V29.8366H54.8105V10.5205H57.9002V2.27014H41.5831L33.2281 16.5367L24.8321 2.27014H8.51535V10.5205H11.6051V29.8366H8.32227V37.6991H25.7252V29.8366H22.4424L22.4466 19.8911Z" fill="white"/>
<path fill-rule="evenodd" clip-rule="evenodd" d="M65.0919 13.7728V26.0015H1.32324V13.7728H65.0919Z" fill="#10132C"/>
<path fill-rule="evenodd" clip-rule="evenodd" d="M2.62598 15.0826H63.7897V24.6918H2.62598V15.0826Z" fill="white"/>
<path fill-rule="evenodd" clip-rule="evenodd" d="M10.8373 17.8009H12.0109L12.9412 20.2648L13.9263 17.8009H15.1122L15.8055 22.411H14.6136L14.2791 19.7573H14.2668L13.1662 22.411H12.6919L11.6398 19.7573H11.6275L11.2445 22.411H10.0586L10.8373 17.8009Z" fill="#10132C"/>
<path fill-rule="evenodd" clip-rule="evenodd" d="M19.5594 22.411H18.3672V17.8009H19.5594V22.411Z" fill="#10132C"/>
<path fill-rule="evenodd" clip-rule="evenodd" d="M25.6001 19.3479C25.3568 19.0179 24.9615 18.8403 24.5539 18.8403C23.8244 18.8403 23.3318 19.4029 23.3318 20.1183C23.3318 20.8457 23.8303 21.3713 24.5721 21.3713C24.9615 21.3713 25.3504 21.1817 25.6001 20.8821V22.3189C25.2048 22.441 24.919 22.5325 24.5479 22.5325C23.9093 22.5325 23.3009 22.2886 22.8267 21.8541C22.3218 21.3956 22.0908 20.7963 22.0908 20.1116C22.0908 19.4816 22.3281 18.8767 22.7659 18.4239C23.216 17.9594 23.8665 17.6781 24.5111 17.6781C24.8944 17.6781 25.2472 17.7635 25.6001 17.9103V19.3479Z" fill="#10132C"/>
<path fill-rule="evenodd" clip-rule="evenodd" d="M31.1608 19.5804V17.8009H32.353V22.411H31.1608V20.5217H29.4399V22.411H28.248V17.8009H29.4399V19.5804H31.1608Z" fill="#10132C"/>
<path fill-rule="evenodd" clip-rule="evenodd" d="M36.1342 22.411H34.9424V17.8009H36.1342V22.411Z" fill="#10132C"/>
<path fill-rule="evenodd" clip-rule="evenodd" d="M43.3541 19.837C43.3422 20.5094 43.2934 21.0843 42.8858 21.6589C42.4361 22.2889 41.761 22.5638 40.9946 22.5638C39.5538 22.5638 38.5498 21.5795 38.5498 20.1303C38.5498 18.6321 39.5595 17.6477 41.0371 17.6477C41.98 17.6477 42.7096 18.0755 43.1049 18.9377L41.9737 19.4145C41.8094 18.9744 41.4629 18.6808 40.9827 18.6808C40.198 18.6808 39.7905 19.4329 39.7905 20.1359C39.7905 20.8514 40.216 21.5791 41.0006 21.5791C41.5173 21.5791 41.9126 21.3095 41.9611 20.7779H40.9883V19.8363H43.3541V19.837Z" fill="#10132C"/>
<path fill-rule="evenodd" clip-rule="evenodd" d="M46.6759 21.6098L46.3596 22.411H45.0947L46.8581 17.8009H48.1595L49.8864 22.411H48.6159L48.3175 21.6098H46.6759ZM47.509 19.2257H47.4967L47.0045 20.6929H47.9956L47.509 19.2257Z" fill="#10132C"/>
<path fill-rule="evenodd" clip-rule="evenodd" d="M51.793 17.8009H52.9852L55.1684 20.6195H55.1804V17.8009H56.3722V22.411H55.1804L52.9971 19.5861H52.9852V22.411H51.793V17.8009Z" fill="#10132C"/>
</g>
<defs>
<clipPath id="clip0_22237_3695">
<rect width="66" height="42" fill="white" transform="translate(0.368164)"/>
</clipPath>
</defs>
</svg>
