<svg width="86" height="48" viewBox="0 0 86 48" fill="none" xmlns="http://www.w3.org/2000/svg">
<g clip-path="url(#clip0_19722_2211)">
<path fill-rule="evenodd" clip-rule="evenodd" d="M25.3202 0H0.577911V10.5314C2.99423 10.3648 15.1115 9.49787 15.1115 8.63502C15.1115 7.67997 9.02987 7.12574 9.02987 7.12574L10.4154 5.40863C10.4154 5.40863 19.3029 6.02718 19.3029 8.69935C19.3029 10.753 12.5779 11.5793 12.5779 11.5793C12.5779 11.5793 19.3622 12.7274 19.3622 14.5237C19.3622 16.8593 12.9243 17.5323 12.9243 17.5323C12.9243 17.5323 19.5552 18.5072 19.5552 20.3381C19.5552 22.4907 12.4047 23.4804 12.4047 23.4804C12.4047 23.4804 19.7284 24.6482 19.7284 26.2218C19.7284 28.2062 12.8501 29.3443 12.8501 29.3443C12.8501 29.3443 19.8224 29.8886 19.8224 32.0363C19.8224 34.3688 13.7929 35.243 13.4538 35.2903C13.5864 35.3099 14.3695 35.4292 15.3515 35.6454C18.2736 36.1917 20.1985 37.1411 20.1985 38.2516V47.0895L20.1639 47.1588C20.1206 47.2763 20.0553 47.3918 19.9694 47.5052H25.3202V0ZM0.577911 34.4519C2.79221 34.288 14.9136 33.2541 14.9136 32.0956C14.9136 31.223 7.54462 30.9608 3.18351 30.8057H3.18349C2.05217 30.7655 1.12325 30.7324 0.577911 30.6978V34.4519ZM14.9136 26.4099C14.9136 27.5451 2.89235 28.4712 0.577911 28.633V24.5783C1.1325 24.6265 2.0017 24.6838 3.04441 24.7525L3.04527 24.7526C7.43933 25.0422 14.9136 25.5348 14.9136 26.4099ZM0.577911 22.4817C3.17342 22.323 15.0323 21.5453 15.0323 20.4569C15.0323 19.7371 9.76771 19.4301 5.42543 19.1769C3.39922 19.0588 1.57384 18.9523 0.577911 18.8211V22.4817ZM14.9136 14.5138C14.9136 15.6365 3.5818 16.4377 0.577911 16.6298V12.6214C1.10728 12.6697 1.95658 12.7286 2.98446 12.8H2.98447L2.98453 12.8C7.34346 13.1024 14.9136 13.6277 14.9136 14.5138ZM34.5886 38.9839H33.975H33.9701L29.9816 47.609H30.6447L31.7334 45.214H36.7956L37.8843 47.609H38.5771L34.5886 38.9839ZM34.2769 39.6767L36.5284 44.635H32.0105L34.2769 39.6767ZM39.0323 39.0433H38.3247L41.4274 47.6734H41.947L44.4558 40.2309L46.9647 47.6734H47.4794L50.587 39.0433H49.9239L47.2319 46.6688L44.728 39.0185H44.2332L41.7243 46.6639L39.0323 39.0433ZM54.9317 38.9839H54.3181L50.3297 47.609H50.9928L52.0814 45.214H57.1387L58.2274 47.609H58.9202L54.9317 38.9839ZM54.615 39.6767L56.8666 44.635H52.3486L54.615 39.6767ZM63.7845 39.0433H60.187V47.609H60.8204V44.061H63.6262L66.3528 47.614H67.1594L64.3338 43.9521C65.7787 43.7542 66.8427 42.9377 66.8427 41.5026V41.4779C66.8449 40.8821 66.612 40.3095 66.1944 39.8845C65.6798 39.3748 64.8336 39.0433 63.7845 39.0433ZM66.2043 41.5274C66.2043 42.7645 65.1453 43.487 63.7103 43.487H60.8253V39.6321H63.7449C65.2987 39.6321 66.2043 40.3497 66.2043 41.5026V41.5274ZM71.5833 39.0433H68.728V47.609H71.5833C74.2752 47.609 76.1358 45.7385 76.1358 43.3237V43.2989C76.1358 40.889 74.2752 39.0433 71.5833 39.0433ZM75.4728 43.3534C75.4728 45.3921 73.9684 47.0251 71.5833 47.0251V47.0202H69.3664V39.6321H71.5833C73.9684 39.6321 75.4728 41.2948 75.4728 43.3286V43.3534ZM77.7391 45.882L77.3235 46.362C78.3528 47.2824 79.4018 47.7327 80.7775 47.7327C82.4253 47.7327 83.613 46.7826 83.613 45.3971V45.3723C83.613 44.1204 82.7816 43.4127 80.8022 43.007C78.7684 42.5913 78.3033 42.042 78.3033 41.1365V41.1117C78.3033 40.216 79.1346 39.4936 80.3965 39.4936C81.3421 39.4767 82.258 39.824 82.9548 40.4635L83.3556 39.9587C82.4897 39.2659 81.6682 38.9195 80.4212 38.9195C78.8278 38.9195 77.6649 39.8993 77.6649 41.1711V41.1958C77.6649 42.4923 78.4963 43.1901 80.5548 43.6057C82.4996 43.9967 82.9796 44.5261 82.9796 45.4317V45.4565C82.9796 46.4362 82.0938 47.1587 80.8072 47.1587C79.5503 47.1587 78.6794 46.7529 77.7391 45.882ZM32.1738 13.1333H29.1849V12.5445H35.7961V13.1333H32.8072V21.1152H32.1738V13.1333ZM37.1767 12.5445H37.815V16.5131H43.2979V12.5445H43.9363V21.1152H43.2979V17.097H37.815V21.1152H37.1767V12.5445ZM46.1779 12.5445H52.2695V13.1333H46.8113V16.4983H51.7202V17.0872H46.8113V20.5263H52.3338V21.1152H46.1779V12.5445ZM38.3247 25.3956L38.3247 25.3955V25.4005H36.1424L35.3309 28.4537L35.3288 28.4617C34.816 30.4143 34.7168 30.792 34.3511 32.7489C34.0592 30.6063 33.9453 30.0916 32.8814 25.4005H30.422L32.926 35.2825H35.4695L36.4196 31.9522C36.7628 30.9025 37.0437 29.8334 37.2608 28.7506C37.5305 30.009 37.5797 30.1776 37.9832 31.5586C38.0239 31.6981 38.0683 31.8499 38.1169 32.0166C38.3115 32.6724 38.4953 33.3318 38.6792 33.9916C38.7991 34.4221 38.9191 34.8527 39.0422 35.2825H41.5858L44.0897 25.3955H41.6402L40.9969 28.4091C40.5515 30.4182 40.4822 30.7547 40.1853 32.7143C39.8922 30.8845 39.7888 30.523 39.3054 28.8326C39.2828 28.7538 39.2595 28.6721 39.2352 28.5873C38.9185 27.5234 38.6216 26.4595 38.3247 25.3956ZM53.1156 34.0256C53.6055 33.5704 53.9321 33.1003 54.2637 32.6054L52.1507 31.5316C51.8043 32.2046 51.2798 33.2042 49.7457 33.2042C48.2365 33.2042 47.5635 32.0265 47.5783 30.8388H54.3726C54.333 29.765 54.2587 27.9093 53.0216 26.5782C51.8043 25.2669 50.1664 25.2124 49.6022 25.2124C45.8513 25.2124 44.7231 28.1617 44.7231 30.4578C44.7231 33.5704 46.7074 35.3716 49.528 35.3716C50.8512 35.3934 52.1333 34.9124 53.1156 34.0256ZM50.9482 27.746C51.2676 28.1245 51.4537 28.5974 51.4777 29.092H47.5981L47.6006 29.0807C47.689 28.683 47.7848 28.2518 48.1622 27.8351C48.5203 27.4547 49.0146 27.2317 49.5368 27.215C50.059 27.1983 50.5665 27.3893 50.9482 27.746ZM59.9544 25.3955H56.1342V35.2776H60.3057C61.4389 35.2776 62.2356 35.2331 62.9779 34.9114C63.4546 34.7172 63.8636 34.3871 64.154 33.9621C64.4444 33.537 64.6033 33.036 64.6109 32.5213C64.6109 31.9572 64.4179 31.4129 64.0666 31.0368C63.5291 30.426 62.7456 30.2977 62.1448 30.1993L62.1218 30.1955C62.6563 30.0867 63.6064 29.8887 64.0517 28.8792C64.0963 28.7852 64.2348 28.4636 64.2348 27.9291C64.2468 27.4109 64.0854 26.9035 63.7761 26.4875C63.4668 26.0715 63.0274 25.7708 62.5276 25.6331C61.9288 25.4401 60.9936 25.3955 59.9544 25.3955ZM58.4847 29.2999V27.2463H60.5136C60.9886 27.2463 61.815 27.2858 61.815 28.2359C61.815 29.2603 60.9045 29.285 60.3453 29.2999H58.4847ZM58.4847 33.4863V31.0912H60.6224L60.6399 31.0917C61.1494 31.1065 62.107 31.1344 62.107 32.3085C62.107 33.4417 61.0332 33.4714 60.2068 33.4863H58.4847ZM70.4501 25.3955H66.6299V35.2776H70.8014C71.9346 35.2776 72.7313 35.2331 73.4736 34.9114C74.7008 34.3671 75.1066 33.2883 75.1066 32.5213C75.1066 31.9572 74.9086 31.4129 74.5622 31.0368C74.0248 30.426 73.2413 30.2977 72.6405 30.1993L72.6175 30.1955C73.1519 30.0867 74.102 29.8887 74.5474 28.8792C74.5919 28.7852 74.7305 28.4636 74.7305 27.9291C74.7425 27.4109 74.581 26.9035 74.2717 26.4875C73.9624 26.0715 73.523 25.7708 73.0233 25.6331C72.4196 25.4401 71.4843 25.3955 70.4501 25.3955ZM68.9804 29.2999V27.2463H71.0093C71.4843 27.2463 72.3107 27.2858 72.3107 28.2359C72.3107 29.2603 71.4002 29.285 70.841 29.2999H68.9804ZM68.9804 33.4863V31.0912H71.1181L71.1355 31.0917C71.645 31.1065 72.6027 31.1344 72.6027 32.3085C72.6027 33.4417 71.5239 33.4714 70.7025 33.4863H68.9804ZM77.8926 25.3955H75.0521H75.0472L78.7585 30.6755V35.2776H81.1932V30.6013L84.9293 25.3955H82.1185L80.4262 28.043C80.1688 28.4487 80.1441 28.5032 80.0204 28.7852L77.8926 25.3955Z" fill="#10132C"/>
</g>
<defs>
<clipPath id="clip0_19722_2211">
<rect width="85.1134" height="48" fill="white" transform="translate(0.206726)"/>
</clipPath>
</defs>
</svg>
