<svg width="72" height="44" viewBox="0 0 72 44" fill="none" xmlns="http://www.w3.org/2000/svg">
<g clip-path="url(#clip0_19740_2177)">
<path d="M0.425995 11.9634H5.52876C9.48749 11.9634 12.146 14.6437 12.146 18.8094C12.146 22.9752 9.55649 25.9533 5.45249 25.9533H0.425995V11.967V11.9634ZM2.50342 24.2136H5.31085C8.48873 24.2136 9.98142 21.9255 9.98142 18.8421C9.98142 16.1727 8.61221 13.703 5.32174 13.703H2.50342V24.2136ZM23.9423 19.5067H17.0381V24.1918H24.6287L24.3672 25.9496H15.0079V11.9634H24.2692V13.7212H17.0381V17.7525H23.9423V19.5104V19.5067ZM27.734 22.02C28.1008 23.647 29.223 24.4969 31.1733 24.4969C33.2471 24.4969 34.0788 23.5454 34.0788 22.2815C34.0788 20.9304 33.3924 20.1968 30.6649 19.543C27.2727 18.7259 26.1686 17.5455 26.1686 15.5952C26.1686 13.4488 27.7558 11.7636 30.9155 11.7636C34.3185 11.7636 35.7095 13.703 35.902 15.5771H33.7955C33.5667 14.404 32.844 13.4016 30.8465 13.4016C29.2339 13.4016 28.3187 14.1207 28.3187 15.3882C28.3187 16.6557 29.0705 17.1315 31.4857 17.7126C35.4916 18.6823 36.2289 20.2258 36.2289 22.0563C36.2289 24.3698 34.5074 26.1349 31.0353 26.1349C27.5633 26.1349 25.9289 24.2463 25.6311 22.0236H27.7376L27.734 22.02ZM41.0556 11.9634V25.9496H38.9782V11.9634H41.0556ZM56.0552 25.9496H54.4826C54.3846 25.6518 54.3265 25.0562 54.2974 24.1519C53.6582 25.1543 52.4197 26.1458 50.0009 26.1458C45.9623 26.1458 43.7977 23.0841 43.7977 19.1036C43.7977 14.9124 46.1221 11.76 50.3786 11.76C53.6945 11.76 55.7538 13.5723 56.1424 16.0492H54.065C53.6255 14.6037 52.5759 13.4633 50.3387 13.4633C47.1608 13.4633 45.9623 16.0201 45.9623 19.0055C45.9623 21.7984 47.1935 24.4243 50.2806 24.4243C53.3676 24.4243 54.0323 22.3941 54.0323 20.244V20.1024H50.2588V18.3445H56.0588V25.9496H56.0552ZM60.0139 25.9496V11.9634H62.7124C64.67 15.2102 68.8176 21.9219 69.5766 23.4437H69.6057C69.4677 21.7113 69.4786 19.4631 69.4786 17.1751V11.9634H71.418V25.9496H68.8757C67.0924 22.9715 62.7269 15.6715 61.8844 14.0916H61.8553C61.957 15.6134 61.9643 18.0794 61.9643 20.6035V25.9496H60.0139ZM4.21403 39.9868L2.78671 44H0.72744L5.66314 30.0137H8.2345L13.3845 44H11.1799L9.7054 39.9868H4.21403ZM9.19694 38.229C7.92942 34.6879 7.21394 32.7485 6.90524 31.648H6.88345C6.54205 32.872 5.74304 35.2036 4.72249 38.229H9.19694ZM17.7936 44L14.0782 30.0137H16.2754C17.4049 34.9421 18.7451 40.1756 18.9848 41.7628H19.0066C19.4061 39.8125 21.2184 33.5475 22.1118 30.0137H24.0876C24.9047 33.0536 26.7207 39.8415 27.0621 41.6792H27.0802C27.5342 39.1369 29.3756 32.7558 30.0947 30.0137H32.1358L28.1117 44H25.9035C25.0791 40.804 23.3866 34.5426 23.0162 32.7303H22.9944C22.5586 34.8913 20.8588 40.8621 19.9908 44H17.7936ZM36.1381 39.9868L34.7108 44H32.6515L37.5872 30.0137H40.1586L45.3085 44H43.104L41.6295 39.9868H36.1381ZM41.121 38.229C39.8535 34.6879 39.138 32.7485 38.8293 31.648H38.8075C38.4661 32.872 37.6671 35.2036 36.6466 38.229H41.121ZM60.1483 30.0137H65.2511C69.2098 30.0137 71.8683 32.694 71.8683 36.8598C71.8683 41.0255 69.2788 44.0036 65.1748 44.0036H60.1483V30.0173V30.0137ZM62.2257 42.2603H65.0332C68.2111 42.2603 69.7038 39.9723 69.7038 36.8888C69.7038 34.2194 68.3345 31.7497 65.0441 31.7497H62.2257V42.2603ZM57.7077 34.6262V33.7763C57.7077 31.5972 56.1569 30.0173 53.2478 30.0173H47.6511V44.0036H49.7031V38.3888H51.9222L54.8967 44.0036H57.3009L54.2865 38.3125C56.5237 37.9747 57.7077 36.5293 57.7077 34.6262ZM55.5758 34.4409C55.5758 35.861 54.6497 36.6636 52.8301 36.6636H49.6995V31.7352H52.8301C54.6497 31.7352 55.5758 32.5378 55.5758 33.9579V34.4373V34.4409ZM46.3037 4.58341H48.9658V5.20083H46.3037V4.58341ZM2.04581 0.849855L1.8061 7.03128V7.14024C1.8061 7.66323 1.96227 7.77218 2.79397 7.83029V8.11721C2.18745 8.07 1.94775 8.0591 1.61361 8.0591C1.27948 8.0591 1.04341 8.07 0.422363 8.11721V7.83029C1.25769 7.77218 1.37391 7.67412 1.39933 7.03128L1.65356 1.18399V1.11135C1.65356 0.562938 1.4865 0.443087 0.665698 0.395873V0.0980603C1.13058 0.134379 1.30854 0.145274 1.64267 0.145274C2.08212 0.145274 2.32183 0.134379 2.77581 0.0871647L4.99124 6.11242L7.23937 0.0871647C7.77688 0.134379 8.02385 0.145274 8.3834 0.145274C8.68122 0.145274 8.87007 0.134379 9.32406 0.0980603V0.395873C8.51415 0.443087 8.33619 0.562938 8.33619 1.09682V1.18035L8.46694 7.02765C8.47783 7.67049 8.58679 7.76492 9.44391 7.82666V8.11358C8.69211 8.04094 8.40883 8.01915 7.95484 8.01915C7.50086 8.01915 7.21758 8.04457 6.46578 8.11358V7.82666C7.27569 7.77945 7.45365 7.6487 7.45365 7.08939V7.03128L7.34469 0.860751L5.37985 6.17416L5.23821 6.5664L5.07115 7.00586L4.91498 7.45984L4.78423 7.85208H4.60627L4.47552 7.47074L4.30845 7.00586L4.14139 6.54098L3.99975 6.12332L2.04581 0.849855ZM10.9874 4.696C11.1073 3.32679 11.5577 2.6222 12.3203 2.6222C13.083 2.6222 13.4862 3.29047 13.5588 4.696H10.9874ZM12.5383 7.81577C11.456 7.81577 10.9766 6.98044 10.9657 5.12456H14.514C14.4886 3.29047 13.7404 2.3135 12.3349 2.3135C10.9293 2.3135 10.0141 3.46843 10.0141 5.30252C10.0141 7.13661 10.9075 8.20801 12.4438 8.20801C13.6097 8.20801 14.3723 7.48163 14.5285 6.25406H14.0527C13.9111 7.26735 13.3845 7.81577 12.5419 7.81577M15.2222 2.75658V2.5423C15.9014 2.48419 16.3045 2.41156 16.7948 2.26991C16.8529 2.70937 16.8783 2.90186 16.9037 3.25778V3.38853C17.1652 2.70937 17.6773 2.31713 18.2984 2.31713C18.9194 2.31713 19.3335 2.70937 19.3335 3.2832C19.3335 3.62823 19.1301 3.8534 18.8323 3.8534C18.5599 3.8534 18.3456 3.68634 18.3456 3.45027C18.3456 3.42485 18.3565 3.37763 18.371 3.33042L18.3964 3.21057V3.10161C18.3964 2.93454 18.2548 2.81469 18.0405 2.81469C17.4195 2.81469 17.0272 3.56649 17.0272 4.74321V7.23104C17.0272 7.74313 17.1471 7.83756 17.8735 7.87388V8.11358C17.2197 8.05547 16.9691 8.04094 16.5515 8.04094C16.1338 8.04094 15.8723 8.05184 15.2186 8.11358V7.87388C15.9449 7.83756 16.0757 7.74313 16.0757 7.23104V3.33768C16.0648 2.82559 16.003 2.76748 15.3856 2.75295H15.2295L15.2222 2.75658ZM23.8878 2.20817V4.17301H23.6263C23.412 3.13793 22.9726 2.63673 22.2462 2.63673C21.3528 2.63673 20.8298 3.60281 20.8298 5.30615C20.8298 7.00949 21.2947 7.8194 22.2099 7.8194C22.9472 7.8194 23.3903 7.29641 23.5319 6.2468H24.0186C23.8624 7.52158 23.1832 8.21164 22.1118 8.21164C20.7317 8.21164 19.7911 7.04581 19.7911 5.30615C19.7911 3.56649 20.7426 2.31713 22.1482 2.31713C22.6603 2.31713 22.9835 2.44787 23.3648 2.81832L23.6881 2.2118H23.8915L23.8878 2.20817ZM25.8454 4.696C25.9652 3.32679 26.4156 2.6222 27.1783 2.6222C27.941 2.6222 28.3441 3.29047 28.4168 4.696H25.8454ZM27.3926 7.81577C26.3103 7.81577 25.8309 6.98044 25.82 5.12456H29.3683C29.3429 3.29047 28.5947 2.3135 27.1892 2.3135C25.7837 2.3135 24.8684 3.46843 24.8684 5.30252C24.8684 7.13661 25.7619 8.20801 27.2981 8.20801C28.464 8.20801 29.2267 7.48163 29.3828 6.25406H28.9071C28.7654 7.26735 28.2388 7.81577 27.3962 7.81577M32.6697 7.8884C31.8125 7.8884 31.3586 6.99496 31.3586 5.29162C31.3586 3.58828 31.7762 2.72026 32.6333 2.72026C33.4905 2.72026 33.9662 3.6246 33.9662 5.37515C33.9662 7.03128 33.5268 7.8884 32.6697 7.8884ZM34.9069 6.87511V0C34.3113 0.159802 33.7737 0.25423 33.1091 0.326867V0.530252C33.8609 0.530252 33.9553 0.613785 33.9553 1.2312V3.31589C33.5159 2.60041 33.1709 2.38613 32.5244 2.38613C31.2496 2.38613 30.3562 3.58828 30.3562 5.30252C30.3562 7.01676 31.2605 8.2189 32.5607 8.2189C33.2399 8.2189 33.7047 7.91019 34.0389 7.24193C34.0861 7.69591 34.0861 7.74313 34.2059 8.19348C34.6926 8.03731 34.896 7.99009 35.6006 7.90656L35.7785 7.88114V7.67775C34.9795 7.65233 34.9105 7.59422 34.9105 6.86785M37.2059 4.696C37.3257 3.32679 37.7761 2.6222 38.5387 2.6222C39.3014 2.6222 39.7046 3.29047 39.7772 4.696H37.2059ZM38.753 7.81577C37.6707 7.81577 37.1913 6.98044 37.1804 5.12456H40.7288C40.7033 3.29047 39.9552 2.3135 38.5496 2.3135C37.1441 2.3135 36.2289 3.46843 36.2289 5.30252C36.2289 7.13661 37.1223 8.20801 38.6586 8.20801C39.8244 8.20801 40.5871 7.48163 40.7433 6.25406H40.2675C40.1259 7.26735 39.5993 7.81577 38.7567 7.81577M41.7384 8.22253V6.23227L41.9999 6.22138C42.2142 7.30367 42.7154 7.83029 43.5471 7.83029C44.248 7.83029 44.7747 7.36541 44.7747 6.75889C44.7747 6.35576 44.5495 6.07974 43.9648 5.81824L43.5108 5.61486L42.9624 5.36426C42.0943 4.95749 41.8183 4.62699 41.8183 3.93331C41.8183 2.99265 42.5556 2.34981 43.6052 2.34981C44.0701 2.34981 44.4151 2.45877 44.8182 2.73116L45.0216 2.24449H45.2359V4.08948H44.9635C44.8546 3.13793 44.4623 2.68395 43.7142 2.68395C43.0822 2.68395 42.5955 3.1125 42.5955 3.67181C42.5955 4.14759 42.7735 4.30376 43.8594 4.77953L44.3606 4.99381C45.265 5.38605 45.5882 5.7674 45.5882 6.47198C45.5882 7.47074 44.7892 8.18622 43.6706 8.18622C43.1222 8.18622 42.6936 8.04457 42.2432 7.68502L41.9563 8.22253H41.7421H41.7384ZM52.2091 4.11127C52.841 4.11127 53.1969 4.21659 53.473 4.49261C53.7453 4.765 53.9015 5.27709 53.9015 5.85093C53.9015 7.04218 53.3059 7.71044 52.2454 7.71044H51.8168C51.1849 7.71044 51.0796 7.61601 51.0796 7.08939V4.11127H52.2127H52.2091ZM51.0796 0.504829H52.0929C53.0916 0.504829 53.5347 0.991498 53.5347 2.09922C53.5347 2.64763 53.404 3.03987 53.1425 3.34858C52.881 3.64639 52.5577 3.74082 51.8931 3.74082H51.0832V0.504829H51.0796ZM54.5916 2.07742C54.5916 1.45638 54.3301 0.911597 53.8761 0.56657C53.4693 0.268758 53.0081 0.138011 52.2309 0.138011H49.1002V0.435823C49.9573 0.483038 50.0772 0.577466 50.0772 1.22031V6.99496C50.0772 7.6378 49.9827 7.72134 49.1002 7.79397V8.08089H52.1146C52.9972 8.08089 53.473 7.97194 53.9742 7.66323C54.5698 7.28188 54.962 6.55551 54.962 5.80371C54.962 5.16087 54.6896 4.57615 54.2248 4.22022C53.9742 4.03137 53.7127 3.92241 53.2841 3.83888C54.1412 3.51564 54.5952 2.90912 54.5952 2.07742M56.9051 4.696C57.0249 3.32679 57.4753 2.6222 58.238 2.6222C59.0007 2.6222 59.4038 3.29047 59.4764 4.696H56.9051ZM58.4522 7.81577C57.37 7.81577 56.8905 6.98044 56.8797 5.12456H60.428C60.4026 3.29047 59.6544 2.3135 58.2489 2.3135C56.8433 2.3135 55.9281 3.46843 55.9281 5.30252C55.9281 7.13661 56.8215 8.20801 58.3578 8.20801C59.5236 8.20801 60.2863 7.48163 60.4425 6.25406H59.9667C59.8251 7.26735 59.2985 7.81577 58.4559 7.81577M61.0599 2.8038V2.60041C61.75 2.50598 62.1567 2.41156 62.6325 2.24449C62.6906 2.51688 62.7269 2.82922 62.7524 3.27957C63.1809 2.63673 63.6676 2.34981 64.3613 2.34981C65.055 2.34981 65.6942 2.72026 65.9339 3.30136C66.0537 3.58828 66.1118 3.92241 66.1118 4.37276V7.23104C66.1118 7.74313 66.2317 7.83756 66.9581 7.87388V8.11358C66.3261 8.05547 66.09 8.04094 65.6615 8.04094C65.2329 8.04094 64.9823 8.05184 64.3649 8.11358V7.87388C65.0078 7.84845 65.1639 7.73223 65.1639 7.25283V4.33644C65.1639 3.30136 64.8552 2.8837 64.0925 2.8837C63.2826 2.8837 62.8541 3.39579 62.8541 4.37276V7.25646C62.8541 7.73223 63.0102 7.85208 63.6276 7.87751V8.11721C63.0066 8.0591 62.7705 8.04457 62.342 8.04457C61.9134 8.04457 61.6737 8.05547 61.0563 8.11721V7.87751C61.7827 7.84119 61.9025 7.74676 61.9025 7.23467V3.37763C61.8916 2.89096 61.819 2.81832 61.2234 2.81832C61.187 2.81832 61.1289 2.80743 61.0672 2.80743M67.4193 8.07726L70.648 2.76385H69.1844C68.4108 2.76385 68.2183 2.93091 67.7898 4.00231H67.5501L67.8224 2.45514H71.9192L68.6796 7.76855H70.0742C70.8841 7.76855 71.2182 7.44532 71.5742 6.36302H71.8248L71.5161 8.07726H67.4193Z" fill="#10132C"/>
</g>
<defs>
<clipPath id="clip0_19740_2177">
<rect width="71.4968" height="44" fill="white" transform="translate(0.425964)"/>
</clipPath>
</defs>
</svg>
