<svg width="81" height="41" viewBox="0 0 81 41" fill="none" xmlns="http://www.w3.org/2000/svg">
<g id="logo">
<path id="Union" fill-rule="evenodd" clip-rule="evenodd" d="M42.8649 1.65394C43.0225 1.34757 43.1503 1.09926 43.2805 1.07929V1.078C43.4088 1.05718 43.5784 1.27659 43.7489 1.49696C43.9281 1.72874 44.1082 1.9616 44.2417 1.91713C44.3543 1.87906 44.4856 1.72056 44.6272 1.54964C44.832 1.30236 45.0584 1.02907 45.2807 1.0568C45.4436 1.07833 46.0838 2.36047 46.0838 2.36047C50.5863 2.58334 56.0095 7.37234 57.8633 9.00937C58.134 9.24836 58.3285 9.42017 58.433 9.50079C58.4927 9.54713 58.5817 9.62613 58.7005 9.73149C59.3654 10.3215 60.9618 11.7382 63.5514 12.874C64.8072 13.425 66.0678 13.6618 67.2381 13.5747C68.7982 13.4629 70.5432 12.0927 71.6166 10.2268C71.9774 9.60054 72.2827 8.84961 72.6112 8.04149C73.5072 5.83729 74.5761 3.2076 77.4182 1.5207C77.9602 1.1988 79.1935 0.477893 79.9054 1.38642C80.4779 2.12242 80.0063 3.33646 79.4087 3.91891C79.0312 4.28643 78.3457 4.65748 77.0478 5.27045C76.6064 5.48183 75.8864 6.01898 75.606 6.23808C74.238 7.28098 73.2396 9.62661 72.139 12.2121L72.0792 12.3526C72.0792 12.3526 71.5999 13.6511 69.4873 15.0467C69.2083 15.2277 69.3467 15.3883 69.6069 15.69C69.6778 15.7722 69.7577 15.8649 69.8406 15.9713C70.3383 16.6295 71.3342 19.3085 71.2057 23.3885C71.1882 23.9769 71.3782 24.2949 71.6267 24.7108C71.6843 24.8071 71.7451 24.9088 71.8071 25.0202C72.042 25.4399 72.3703 25.6489 72.6739 25.8422C73.1102 26.1199 73.4955 26.3652 73.4792 27.1569C73.4587 28.1072 73.8198 28.6628 74.1027 29.0981C74.3558 29.4875 74.5463 29.7807 74.345 30.1739C74.0971 30.6544 74.1151 31.1237 74.133 31.5927C74.1376 31.7145 74.1423 31.8362 74.1423 31.9581C74.1423 32.0087 74.1469 32.0631 74.1516 32.1186C74.1748 32.3914 74.2 32.6881 73.6855 32.6614C71.1867 32.5098 71.32 29.1985 71.3686 27.9903L71.3705 27.9443C71.4103 27.7895 71.2943 27.5129 71.2741 27.5003C71.1485 27.4085 69.5721 26.1828 69.4673 26.0784C67.5513 24.131 66.2891 22.3814 65.5846 20.5814C65.1178 19.3824 64.6372 18.2008 63.8157 17.441C62.8947 16.6006 61.7661 16.1274 60.776 16.1223C55.0646 16.0918 53.0326 14.0552 51.4464 12.4653C51.0767 12.0948 50.7313 11.7485 50.3691 11.4576C50.3113 11.4149 50.1352 11.3156 50.0347 11.3079C49.9559 11.3128 49.8894 11.3829 49.8322 11.4431C49.8117 11.4647 49.7924 11.485 49.7741 11.5006C49.0343 12.2758 48.2893 12.5287 47.2879 12.5287C45.9481 12.5287 44.5512 11.8676 43.5058 11.3728C42.6947 10.989 42.0952 10.7052 41.8978 10.9079C41.7578 11.0552 41.7241 11.2657 41.691 11.4721C41.6426 11.774 41.5955 12.0672 41.2197 12.1412C40.3047 12.3256 39.3573 11.4213 39.4328 10.6551C39.57 9.28491 40.9729 8.88365 42.2024 8.7439C43.0111 8.65824 43.6993 8.8166 44.0452 8.89621C44.1352 8.91691 44.202 8.93229 44.2417 8.93666C44.8094 9.01601 44.9087 8.32916 44.8155 7.88614C44.7167 7.43663 44.3185 7.31958 43.8844 7.19198C43.8544 7.18315 43.8242 7.17427 43.7939 7.16523C43.4932 7.07555 43.1749 7.16497 42.8788 7.24815C42.6138 7.3226 42.3667 7.39205 42.1658 7.32362C41.8382 7.20618 41.7086 7.05611 41.5413 6.86235C41.4541 6.76141 41.3568 6.64861 41.2158 6.52239C41.0594 6.3865 40.8959 6.28007 40.7432 6.18072C40.3812 5.94516 40.0805 5.74946 40.0821 5.2955C40.0821 4.96624 40.3029 4.80349 40.5357 4.63191C40.7254 4.49211 40.9231 4.34645 41.0157 4.10009C41.0672 3.96482 41.0863 3.82672 41.1035 3.70142C41.1213 3.5729 41.1371 3.45783 41.1843 3.37308C41.3249 3.11645 41.5363 3.01425 41.7609 2.90572C41.9285 2.82473 42.1033 2.74022 42.2615 2.58536C42.5154 2.33289 42.7054 1.96373 42.8649 1.65394ZM19.6654 37.4893C19.6654 37.9824 20.0792 38.3811 20.5649 38.3926V38.3939C21.0516 38.3824 21.4645 37.9837 21.4645 37.4906L21.4696 21.3954H26.7704V39.136C26.7715 39.3427 26.7318 39.5475 26.6536 39.7388C26.5754 39.93 26.4603 40.104 26.3148 40.2507C26.1693 40.3974 25.9963 40.514 25.8056 40.5937C25.615 40.6734 25.4105 40.7148 25.2039 40.7154H15.9295C15.0653 40.7154 14.3608 40.0057 14.3608 39.136L14.3608 21.3941H19.6654V37.4893ZM30.2972 21.3954L38.3257 21.3954H46.3556C46.5826 21.3959 46.8073 21.4412 47.0169 21.5285C47.2264 21.6158 47.4167 21.7436 47.5769 21.9045C47.737 22.0654 47.8639 22.2562 47.9504 22.4662C48.0368 22.6761 48.081 22.901 48.0805 23.128V40.7166H42.772V24.5827C42.7694 24.3461 42.6733 24.1203 42.5048 23.9543C42.3363 23.7883 42.109 23.6957 41.8725 23.6966C41.3768 23.6966 40.979 24.0792 40.9729 24.5685V40.7166H35.6853V24.5688C35.6794 24.3326 35.581 24.1081 35.4112 23.9438C35.2414 23.7795 35.0139 23.6884 34.7776 23.6902C34.5413 23.692 34.3151 23.7866 34.1479 23.9535C33.9806 24.1204 33.8856 24.3464 33.8834 24.5827V40.7163H28.5733L28.5733 23.128C28.5726 22.901 28.6167 22.6761 28.703 22.4662C28.7893 22.2563 28.9162 22.0654 29.0763 21.9045C29.2363 21.7436 29.4266 21.6159 29.6361 21.5285C29.8455 21.4412 30.0702 21.3959 30.2972 21.3954ZM7.19949 24.2673C7.24391 24.3782 7.26599 24.4969 7.26446 24.6164L7.26446 32.5621C7.26587 32.681 7.24362 32.799 7.19901 32.9092C7.1544 33.0194 7.08831 33.1196 7.00461 33.204C6.9209 33.2884 6.82123 33.3554 6.71142 33.4009C6.6016 33.4465 6.48382 33.4697 6.36493 33.4693H5.46381L5.46381 23.6966H6.36493C6.48445 23.6977 6.60256 23.7225 6.71251 23.7693C6.82245 23.8162 6.92207 23.8843 7.00563 23.9698C7.0892 24.0552 7.15508 24.1563 7.19949 24.2673ZM5.46509 35.8605H10.824V35.8611C11.0526 35.8616 11.2791 35.817 11.4903 35.7297C11.7016 35.6424 11.8936 35.5142 12.0551 35.3524C12.2167 35.1907 12.3447 34.9987 12.4318 34.7873C12.5189 34.5759 12.5634 34.3495 12.5627 34.1209V23.1357C12.5627 22.1732 11.8154 21.3954 10.8581 21.3954H0.164307L0.164307 40.716H5.46509V35.8605ZM64.3156 38.4328C64.3156 37.3167 65.2097 36.3957 66.2753 36.3957H66.31C67.401 36.3957 68.2841 37.3129 68.2841 38.4328C68.2841 39.5527 67.4023 40.4661 66.31 40.4661C65.2103 40.4661 64.3156 39.5489 64.3156 38.4328ZM66.3094 40.806C67.6117 40.806 68.6636 39.7387 68.6636 38.4267C68.6636 37.0989 67.6117 36.0494 66.2705 36.0494C64.9932 36.0494 63.9365 37.1317 63.9365 38.4267C63.9351 38.739 63.9955 39.0485 64.1142 39.3374C64.2329 39.6262 64.4075 39.8888 64.628 40.1099C64.8485 40.3311 65.1106 40.5064 65.3992 40.6258C65.6877 40.7453 65.9971 40.8065 66.3094 40.806ZM66.627 37.8832C66.627 38.1447 66.4332 38.2758 66.0644 38.2758L65.9751 38.2748V37.5298H66.0808C66.4397 37.5298 66.627 37.6503 66.627 37.8832ZM66.7905 39.803L67.4234 39.803L66.5402 38.6558L66.5778 38.642C66.9013 38.5479 67.1326 38.2317 67.1326 37.8758C67.1326 37.3422 66.7407 37.063 66.0018 37.063H65.4595V39.803H65.9764V38.7197L66.7905 39.803ZM56.9824 24.5764V33.4742L55.1807 33.473L55.1807 24.5902C55.1849 24.3552 55.2808 24.1312 55.4478 23.9659C55.6148 23.8006 55.8398 23.707 56.0748 23.7052C56.3098 23.7034 56.5362 23.7935 56.7058 23.9562C56.8753 24.119 56.9746 24.3415 56.9824 24.5764ZM56.9824 35.867V40.718L62.2832 40.7164V23.1281C62.2838 22.9011 62.2397 22.6762 62.1534 22.4662C62.067 22.2563 61.9401 22.0654 61.78 21.9045C61.6198 21.7436 61.4295 21.6158 61.22 21.5285C61.0104 21.4412 60.7857 21.396 60.5587 21.3956H51.606C51.3791 21.3961 51.1545 21.4413 50.945 21.5287C50.7355 21.616 50.5453 21.7438 50.3852 21.9047C50.2252 22.0656 50.0984 22.2565 50.0121 22.4664C49.9259 22.6763 49.8818 22.9012 49.8825 23.1281V40.718H55.1807V35.867H56.9824Z" fill="#F0F1F9"/>
</g>
</svg>
