<svg width="161" height="22" viewBox="0 0 161 22" fill="none" xmlns="http://www.w3.org/2000/svg">
<g clip-path="url(#clip0_18686_1918)">
<path d="M12.3273 2.65284C12.3273 0.946176 10.7273 0.412843 9.3406 0.519509V0.786176C10.1406 0.786176 10.7806 1.05284 10.7806 1.63951C10.7806 2.01284 10.5139 2.49284 9.71394 2.49284C9.07394 2.49284 7.84727 2.11951 6.83394 1.79951C5.71394 1.42618 4.7006 1.05284 3.84727 1.05284C2.1406 1.05284 0.860604 2.33284 0.860604 3.87951C0.860604 5.15951 1.8206 5.58618 2.19394 5.74618L2.3006 5.53284C2.03394 5.37284 1.8206 5.15951 1.8206 4.67951C1.8206 4.30618 2.1406 3.71951 3.04727 3.71951C3.84727 3.71951 4.8606 4.09284 6.24727 4.46618C7.4206 4.78618 8.75394 5.10618 9.44727 5.21284V7.87951L8.11394 8.99951V9.10618L9.44727 10.2795V13.9595C8.75394 14.3328 7.95394 14.4395 7.31394 14.4395C6.03394 14.4395 4.8606 14.1195 3.9006 13.0528L7.47394 11.3462V5.37284L3.04727 7.29284C3.52727 6.11951 4.43394 5.37284 5.3406 4.78618L5.28727 4.62618C2.67394 5.31951 0.327271 7.71951 0.327271 10.6528C0.327271 14.1728 3.20727 16.7862 6.4606 16.7862C9.9806 16.7862 12.2206 14.0128 12.1673 11.1328H11.9539C11.4206 12.2528 10.6739 13.3195 9.71394 13.8528V10.2262L11.1006 9.10618V8.99951L9.71394 7.82618V5.15951C10.9939 5.15951 12.3273 4.30618 12.3273 2.65284ZM4.75394 12.3062L3.68727 12.8395C3.1006 12.0395 2.67394 10.9728 2.67394 9.53284C2.67394 8.94618 2.72727 8.19951 2.9406 7.66618L4.75394 6.86618V12.3062ZM13.9806 14.2262L12.8073 15.0795L12.9673 15.2395L13.5006 14.8662L15.4206 16.6262L18.0339 14.8662L17.9273 14.7062L17.2339 15.1328L16.3806 14.2795V8.30618L17.0739 7.77284L18.5673 8.99951V14.2795C18.5673 17.5862 17.8206 18.1195 16.3273 18.6528V18.8662C18.7806 18.9728 21.0206 18.1195 21.0206 13.9062V8.25284L21.8206 7.61284L21.6606 7.45284L20.9673 7.98618L18.8339 6.11951L16.3273 7.98618V0.83951H16.1673L13.0739 2.91951V3.07951C13.3939 3.29284 13.9273 3.39951 13.9273 4.41284V14.2262H13.9806ZM29.8739 13.2662L27.7406 14.9195L25.5006 13.1595V12.1462L29.6606 9.42618V9.31951L27.6339 6.17284L23.1539 8.57284V14.2262L22.2473 14.9195L22.4073 15.0795L23.2073 14.4395L26.1406 16.5728L30.0873 13.4795L29.8739 13.2662ZM25.5539 11.8262V7.55951L25.7139 7.45284L27.6339 10.4395L25.5539 11.8262ZM46.5139 1.85284C46.5139 1.58618 46.4606 1.37284 46.3539 1.05284H46.1406C45.8739 1.79951 45.5539 2.17284 44.7006 2.17284C43.9539 2.17284 43.3673 1.69284 43.0473 1.37284L40.5406 4.25284L40.7539 4.46618L41.4473 3.66618C41.9806 4.09284 42.3539 4.46618 43.5806 4.51951V11.7728L38.5139 2.97284C38.1406 2.33284 37.4473 1.31951 36.2206 1.31951C34.8339 1.31951 33.6073 2.49284 33.7673 4.46618H34.0339C34.0873 3.93284 34.3539 3.34618 34.9406 3.34618C35.4206 3.34618 35.8473 3.82618 36.0606 4.19951V7.02618C34.4606 7.02618 33.4473 7.77284 33.4473 9.05284C33.4473 9.69284 33.7673 10.8128 34.8873 11.0262V10.8128C34.7273 10.6528 34.6206 10.4928 34.6206 10.2262C34.6206 9.74618 34.9939 9.42618 35.6339 9.42618C35.7406 9.42618 36.0073 9.42618 36.1139 9.47951V13.1595C34.2473 13.1595 32.8606 14.1728 32.8606 15.9328C32.8606 17.5862 34.3006 18.3862 35.7939 18.2795V18.0662C34.8873 17.9595 34.3539 17.5328 34.3539 16.9462C34.3539 16.1995 34.8873 15.8262 35.5806 15.8262C36.2739 15.8262 36.9139 16.2528 37.3406 16.7328L39.8473 13.9595L39.6339 13.7462L38.9939 14.4928C38.0339 13.6395 37.5006 13.3195 36.3806 13.1595V4.41284L43.4206 16.6262H43.9006V4.46618C45.2873 4.41284 46.5139 3.39951 46.5139 1.85284ZM52.8073 13.2662L50.6739 14.9195L48.4339 13.1595V12.1462L52.5939 9.42618V9.31951L50.5673 6.17284L46.0873 8.57284V14.2262L45.1273 14.9195L45.2873 15.0795L46.0873 14.4395L49.0206 16.5728L52.9673 13.4795L52.8073 13.2662ZM48.4873 11.8262V7.55951L48.6473 7.45284L50.5673 10.4395L48.4873 11.8262ZM67.0473 7.07951L66.4073 7.55951L64.7539 6.17284L62.8339 7.93284L63.6339 8.67951V15.2395L61.5006 13.9062V8.57284L62.1939 8.09284L60.1673 6.22618L58.3006 7.98618L59.1006 8.73284V14.9728L58.8339 15.1328L56.9673 13.8528V8.62618C56.9673 7.39951 56.3806 7.07951 55.6339 6.59951C54.9939 6.22618 54.7273 5.85284 54.7273 5.26618C54.7273 4.78618 55.2073 4.46618 55.4739 4.35951V4.14618C54.8339 4.14618 52.9673 4.83951 52.9139 6.54618C52.9139 7.39951 53.2873 7.77284 53.7673 8.19951C54.1939 8.62618 54.6206 8.99951 54.6206 9.74618V14.7595L53.7139 15.5062L53.8739 15.7195L54.7273 15.0795L57.0206 16.8928L59.2073 15.3995L61.6073 16.8928L66.2473 14.2262V8.14618L67.3673 7.29284L67.0473 7.07951ZM83.2073 2.27951L82.3539 3.07951L80.4339 1.37284L77.6073 3.50618V1.53284H77.3406L77.3939 15.6128C77.1273 15.5595 76.3806 15.3995 75.7406 15.2928L75.6873 3.50618C75.6873 2.65284 75.0473 1.42618 73.5006 1.42618C71.9006 1.42618 70.8873 2.65284 70.8873 3.87951H71.1539C71.2606 3.34618 71.5273 2.91951 72.0073 2.91951C72.5406 2.91951 73.0206 3.23951 73.0206 4.41284V7.82618C71.4206 7.87951 70.5139 8.78618 70.5139 9.85284C70.5139 10.5462 70.8339 11.6128 71.9539 11.6128L72.0073 11.3995C71.6339 11.2395 71.5273 11.0262 71.5273 10.8128C71.5273 10.3328 72.0073 10.1195 72.6473 10.1195H72.9673V15.5062C71.6873 15.9328 71.1006 16.8928 71.1006 17.9062C71.1006 19.3462 72.2739 20.4662 73.9806 20.4662C75.2073 20.4662 76.2206 20.2528 77.3406 19.9862C78.2473 19.8262 79.3139 19.6128 79.8473 19.6128C80.4873 19.6128 80.8073 19.9328 80.8073 20.4128C80.8073 20.9995 80.5406 21.2662 80.1673 21.3195L80.2206 21.5328C81.6606 21.2662 82.4606 20.4128 82.4606 19.1328C82.4606 17.7995 81.1806 16.9995 79.7939 16.9995C79.0473 16.9995 77.6606 17.2128 76.5406 17.4795C75.3139 17.7462 74.1406 17.8528 73.7673 17.8528C73.1806 17.8528 72.4339 17.5862 72.4339 16.7328C72.4339 15.9862 73.0206 15.4528 74.5139 15.4528C75.3139 15.4528 76.2206 15.5595 77.2339 15.8262C78.3006 16.0395 79.2073 16.3595 80.1139 16.3595C81.3939 16.3595 82.5139 15.8795 82.5139 14.0662V3.34618L83.5273 2.49284L83.2073 2.27951ZM79.6339 7.66618C79.4206 7.93284 79.0473 8.14618 78.6206 8.14618C78.1406 8.14618 77.7673 7.87951 77.5539 7.66618V3.77284L78.4606 3.18618L79.6873 4.30618V7.66618H79.6339ZM79.6339 10.2262C79.4206 10.0128 79.0473 9.79951 78.6206 9.79951C78.1939 9.79951 77.7673 10.0662 77.5539 10.2262V7.93284C77.7139 8.09284 78.1406 8.41284 78.6206 8.41284C79.1006 8.41284 79.4739 8.14618 79.6339 7.93284V10.2262ZM79.6339 14.3328C79.6339 15.0262 79.1539 15.7195 78.2473 15.7195C78.0873 15.7195 77.7139 15.7195 77.5539 15.6662V10.5995C77.7673 10.3862 78.1406 10.1195 78.6206 10.1195C79.0473 10.1195 79.4206 10.3862 79.6339 10.5995V14.3328ZM91.5273 8.14618L88.7006 6.11951L84.4873 8.51951V14.2262L83.6339 14.9195L83.7406 15.0795L84.4339 14.5462L87.2073 16.5728L91.5273 13.9595V8.14618ZM86.8873 13.6395V7.39951L89.0739 8.99951V15.1862L86.8873 13.6395ZM99.7939 6.38618H99.6339C99.4206 6.59951 99.1006 6.75951 98.8873 6.75951C98.5673 6.75951 98.1406 6.54618 97.9273 6.27951H97.7673L96.2739 7.87951L94.7806 6.27951L92.2206 8.03951L92.3273 8.25284L93.0206 7.77284L93.9273 8.73284V14.2262L92.7539 15.0795L92.9139 15.2395L93.4473 14.8662L95.5273 16.6262L98.2473 14.8128L98.1406 14.6528L97.3939 15.1328L96.3806 14.2262V8.09284C96.8073 8.57284 97.3406 8.99951 97.9273 8.99951C99.0473 8.94618 99.6873 7.66618 99.7939 6.38618ZM110.247 14.7062L107.261 16.6262L103.261 10.5462L106.087 6.11951H106.247C106.567 6.43951 107.154 6.81284 107.687 6.81284C108.274 6.81284 108.701 6.49284 108.967 6.11951H109.127C109.021 7.87951 107.847 8.89284 106.941 8.89284C106.034 8.89284 105.607 8.46618 105.127 8.19951L104.861 8.57284L109.234 15.0262L110.087 14.4928L110.247 14.7062ZM100.701 14.2262L99.5273 15.0795L99.6873 15.2395L100.221 14.8662L102.141 16.6262L104.754 14.8662L104.594 14.7062L103.954 15.1328L103.101 14.2795V0.83951H102.941L99.7939 2.91951V3.07951C100.114 3.23951 100.701 3.34618 100.701 4.41284V14.2262ZM124.701 2.65284C124.701 0.946176 123.101 0.412843 121.714 0.519509V0.786176C122.514 0.786176 123.154 1.05284 123.154 1.63951C123.154 2.01284 122.887 2.49284 122.087 2.49284C121.447 2.49284 120.221 2.11951 119.207 1.79951C118.087 1.42618 117.074 1.05284 116.221 1.05284C114.514 1.05284 113.234 2.33284 113.234 3.87951C113.234 5.15951 114.194 5.58618 114.567 5.74618L114.674 5.53284C114.407 5.37284 114.194 5.15951 114.194 4.67951C114.194 4.30618 114.514 3.71951 115.421 3.71951C116.221 3.71951 117.234 4.09284 118.621 4.46618C119.794 4.78618 121.127 5.10618 121.821 5.21284V7.87951L120.487 8.99951V9.10618L121.821 10.2795V13.9595C121.127 14.3328 120.327 14.4395 119.687 14.4395C118.407 14.4395 117.234 14.1195 116.274 13.0528L119.847 11.3462V5.37284L115.474 7.34618C115.954 6.17284 116.861 5.42618 117.767 4.83951L117.661 4.62618C115.047 5.31951 112.701 7.71951 112.701 10.6528C112.701 14.1728 115.581 16.7862 118.834 16.7862C122.354 16.7862 124.594 14.0128 124.541 11.1328H124.327C123.794 12.2528 123.047 13.3195 122.087 13.8528V10.2262L123.474 9.10618V8.99951L122.087 7.87951V5.21284C123.367 5.15951 124.701 4.30618 124.701 2.65284ZM117.127 12.3062L116.061 12.8395C115.474 12.0395 115.047 10.9728 115.047 9.53284C115.047 8.94618 115.101 8.19951 115.314 7.66618L117.127 6.86618V12.3062ZM127.687 1.85284H127.581L125.821 3.34618V3.45284L127.314 5.10618H127.474L129.234 3.66618V3.55951L127.687 1.85284ZM130.301 14.7062L129.661 15.1328L128.807 14.2795V8.30618L129.661 7.66618L129.501 7.45284L128.861 7.93284L127.367 6.11951L124.861 7.87951L125.021 8.09284L125.661 7.66618L126.407 8.62618V14.2795L125.287 15.1328L125.394 15.2928L125.981 14.8662L127.901 16.6262L130.514 14.8662L130.301 14.7062ZM144.807 14.5995L144.167 15.0262L143.261 14.1728V8.25284L144.167 7.61284L144.007 7.39951L143.261 7.98618L141.287 6.11951L138.727 7.93284L136.754 6.11951L134.247 7.93284L132.701 6.11951L130.194 7.87951L130.301 8.09284L130.941 7.66618L131.794 8.57284V14.2262L131.101 14.9195L133.074 16.5728L134.994 14.8128L134.194 14.0662V8.19951L134.941 7.71951L136.274 8.94618V14.2262L135.634 14.9195L137.661 16.5728L139.527 14.8128L138.727 14.0662V8.19951L139.367 7.77284L140.807 8.99951V14.1728L140.221 14.7595L142.247 16.6262L144.914 14.8128L144.807 14.5995ZM152.381 13.2662L150.247 14.9195L148.007 13.1595V12.1462L152.114 9.37284V9.26618L150.087 6.11951L145.607 8.51951V14.4395L148.594 16.6262L152.541 13.5328L152.381 13.2662ZM148.007 11.8262V7.55951L148.167 7.45284L150.087 10.4395L148.007 11.8262ZM160.327 11.0262L158.674 9.74618C159.794 8.78618 160.221 7.45284 160.221 6.59951C160.221 6.49284 160.221 6.22618 160.167 6.06618H159.954C159.794 6.54618 159.474 6.91951 158.781 6.91951C158.141 6.91951 157.661 6.54618 157.234 6.06618L153.341 8.19951V11.3462L154.781 12.4662C153.287 13.7462 153.021 14.7062 153.021 15.3462C153.021 16.1995 153.394 16.8395 154.141 17.1062L154.247 16.8928C154.087 16.7328 153.874 16.6262 153.874 16.2528C153.874 15.9862 154.247 15.5595 154.887 15.5595C155.741 15.5595 156.274 16.1462 156.541 16.4662L160.327 14.2262V11.0262ZM159.421 8.41284C158.834 9.42618 157.501 10.4395 156.754 11.0262L155.794 10.2795V7.18618C156.167 8.03951 157.074 8.73284 158.087 8.73284C158.621 8.73284 158.941 8.67951 159.421 8.41284ZM157.874 15.3462C157.447 14.3862 156.434 13.6928 155.367 13.6928C155.101 13.6928 154.407 13.6928 153.714 14.1195C154.087 13.4795 155.261 12.1995 156.754 11.3462L157.821 12.1995V15.3462H157.874Z" fill="white"/>
</g>
<defs>
<clipPath id="clip0_18686_1918">
<rect width="160" height="21.28" fill="white" transform="translate(0.327271 0.359985)"/>
</clipPath>
</defs>
</svg>
