<svg width="203" height="28" viewBox="0 0 203 28" fill="none" xmlns="http://www.w3.org/2000/svg">
<g clip-path="url(#clip0_19288_4148)">
<path fill-rule="evenodd" clip-rule="evenodd" d="M14.6812 0.903123C14.077 0.402309 13.3357 0.0880659 12.5502 -0.000102825C12.1564 -0.0427434 11.7578 -0.00715728 11.3782 0.104539C11.4948 0.125947 11.6153 0.143265 11.7372 0.160773C12.3366 0.246862 12.968 0.337551 13.3129 0.941675C13.4376 1.15295 13.4723 1.40411 13.4092 1.64037C13.3462 1.87663 13.1906 2.07884 12.9764 2.20289C12.6784 2.34121 12.3553 2.41976 12.026 2.43395C11.6967 2.44813 11.3678 2.39767 11.0586 2.2855C10.2443 2.08502 9.38792 1.81084 8.54491 1.54095C7.32677 1.15097 6.13665 0.769963 5.1424 0.633257C4.08378 0.50541 3.01455 0.76843 2.14226 1.37126C1.66137 1.70613 1.27693 2.15756 1.02634 2.68162C0.775757 3.20568 0.667564 3.78452 0.712291 4.36182C0.729229 4.76677 0.845056 5.16178 1.05001 5.51355C1.25496 5.86532 1.54302 6.16354 1.88992 6.38306C2.05891 6.49565 2.24986 6.57254 2.45069 6.60887C2.2349 6.42714 2.06745 6.19652 1.96282 5.93695C1.89259 5.66332 1.89987 5.37604 1.98388 5.10617C2.0679 4.83631 2.22544 4.59415 2.43947 4.40588C2.66859 4.25105 2.92797 4.14466 3.20116 4.09347C3.47435 4.04227 3.75539 4.04738 4.02646 4.10847C4.34909 4.15517 5.72063 4.51697 6.97899 4.84892L6.97909 4.84894C7.79854 5.06511 8.56998 5.26861 8.97248 5.36418C9.90911 5.61814 10.8604 5.81677 11.8212 5.95898V9.59392L10.0323 11.0148L11.8156 12.4358V17.4751C10.724 18.1379 9.42862 18.3993 8.15936 18.2131C6.81457 17.9771 5.5931 17.2947 4.69939 16.28L9.2753 14.0274V6.22885L3.60588 8.71272C4.01794 7.61581 4.74439 6.65944 5.69757 5.95898C5.93234 5.8222 6.13606 5.67987 6.31673 5.55364L6.31675 5.55363L6.31676 5.55362L6.3168 5.55359L6.31687 5.55354C6.39076 5.50192 6.46079 5.45299 6.52751 5.40824C6.17952 5.43673 5.83955 5.52627 5.52373 5.6726C2.6021 6.74655 0.0730088 9.62696 0.000108275 12.97C-0.067656 14.6071 0.361776 16.227 1.23381 17.6238C1.79464 18.5072 2.53466 19.2677 3.40777 19.858C4.28089 20.4483 5.2684 20.8558 6.30881 21.055C8.17715 21.4603 10.1328 21.128 11.7539 20.1297C12.9514 19.4425 13.8928 18.3963 14.44 17.1447C14.9673 16.0851 15.194 14.9055 15.0961 13.73C14.9896 13.9669 14.9447 14.088 14.9447 14.088C14.3037 15.4339 13.294 16.578 12.0287 17.3925V12.4358L13.8232 11.0148L12.0287 9.5829V5.98101C12.716 5.98488 13.3898 5.79362 13.969 5.43027C14.3161 5.23628 14.6159 4.97017 14.8474 4.65053C15.0789 4.3309 15.2365 3.96545 15.3092 3.57976C15.4575 3.11918 15.4774 2.628 15.367 2.15729C15.2565 1.68658 15.0197 1.25351 14.6812 0.903123ZM5.82094 7.98573V15.4814L5.80972 15.5089L4.57602 16.1093C3.69716 14.959 3.15955 13.5922 3.02268 12.1604C2.9477 11.0829 3.11226 10.0024 3.50494 8.9936L5.82094 7.98573ZM34.5432 7.6226L34.5438 7.62224L34.5269 7.5947L34.5432 7.6226ZM34.5432 7.6226C34.5065 7.64433 32.7928 8.65977 31.639 9.3626C30.4725 10.0731 28.9024 10.7945 28.9024 10.7945V17.9543L27.8593 18.7804L27.9995 18.9401L29.0201 18.1305L32.2165 20.9669L37.7682 16.6435L37.6392 16.4893L34.5718 18.852L32.0427 16.5223V15.6632L37.0897 12.0007L34.5432 7.6226ZM32.0427 15.4208L34.6167 13.5483V13.5428L32.0427 9.23042V15.4208ZM23.5526 23.1698C22.4653 23.7566 21.1989 23.9385 19.9861 23.682C20.8411 23.5157 21.597 23.03 22.0946 22.3272C22.9918 21.3359 22.9918 19.3036 22.9918 17.6514V11.483L21.4329 9.58841L20.3898 10.4641V17.6238L21.3095 18.483L22.1282 17.8441L22.2572 18.0038L18.6739 20.8016L16.3971 18.7253L15.5952 19.3036L15.4775 19.1329L17.1598 17.8992V5.06127C17.163 4.83562 17.0899 4.6153 16.9518 4.43489C16.8138 4.25447 16.6187 4.12416 16.3971 4.06441L20.4123 1.02979V10.1942L23.6087 7.49557L26.1041 10.2163L27.1864 9.41768L27.3154 9.5774L26.1938 10.4035V16.0927L26.1209 18.6978C26.1629 19.6047 25.9443 20.505 25.4902 21.2958C25.036 22.0865 24.3646 22.7359 23.5526 23.1698ZM42.8432 21.3248C42.832 21.9968 43.432 22.8504 44.862 23.0101C44.221 23.1508 43.5519 23.102 42.9391 22.8697C42.3263 22.6374 41.7973 22.2321 41.4188 21.7049C41.1 21.2207 40.9239 20.6592 40.9101 20.0828C40.8962 19.5063 41.0451 18.9373 41.3403 18.4389C42.3385 16.5829 44.5424 16.5168 45.2321 16.5168V11.874C45.176 11.5931 43.7461 11.7033 43.5498 12.3807C43.4939 12.5986 43.5137 12.8286 43.6062 13.0342C43.6987 13.2398 43.8584 13.4091 44.0601 13.5152C43.668 13.4885 43.2913 13.355 42.9722 13.1297C42.662 12.8791 42.4115 12.5648 42.2381 12.209C42.0646 11.8532 41.9726 11.4644 41.9684 11.0699C42.1005 8.80455 44.2808 8.66753 45.1777 8.61116L45.2265 8.60808V5.3036L45.2037 5.26508C44.8702 4.70209 44.4337 3.96528 43.6115 3.96528C42.6806 3.95426 42.4451 5.43577 42.4451 5.43577C42.4451 5.43577 42.2937 5.11634 42.4451 3.78353C42.5384 3.09769 42.8754 2.46628 43.3966 2.00074C43.9179 1.53519 44.5898 1.26543 45.2938 1.23908C45.8795 1.26322 46.448 1.44026 46.9408 1.75197C47.4337 2.06369 47.833 2.4988 48.0977 3.01249L54.4624 14.3799V5.40824C53.9268 5.4046 53.3972 5.2966 52.9043 5.09051C52.4115 4.88441 51.9652 4.58432 51.5913 4.20761L50.6267 5.26504L50.4697 5.12736L53.7951 1.43184C54.0748 1.73446 54.4146 1.97759 54.7936 2.1462C55.1727 2.31481 55.5829 2.40533 55.999 2.41217C56.4417 2.40715 56.8668 2.24107 57.192 1.94605C57.5173 1.65103 57.7196 1.24803 57.7598 0.815003C57.9392 0.991243 58.6178 2.83074 56.9635 4.48298C56.3238 5.02448 55.5235 5.34896 54.6811 5.40824V20.8622C54.6811 20.8622 54.8045 21.1045 54.4512 21.1045C54.0979 21.1045 54.0138 20.9283 54.0138 20.9283L45.4228 5.57346V16.5223C46.749 16.7142 47.9661 17.3528 48.8659 18.3288L49.7519 17.354L49.909 17.4916L46.634 21.0825C46.3521 20.6943 45.9724 20.3846 45.532 20.1838C45.0916 19.983 44.6057 19.8979 44.1218 19.937C43.7824 19.9968 43.4728 20.1656 43.2414 20.4167C43.0101 20.6678 42.87 20.9872 42.8432 21.3248ZM62.9856 7.6226L62.9862 7.62224L62.9694 7.5947L62.9856 7.6226ZM62.9856 7.6226C62.9489 7.64443 61.2353 8.66498 60.0814 9.34057C58.915 10.0235 57.3448 10.7725 57.3448 10.7725V17.9322L56.3018 18.7584L56.442 18.9181L57.4626 18.1085L60.659 20.9448L66.2106 16.6215L66.0761 16.4672L63.0086 18.83L60.4851 16.5223V15.6632L65.5321 12.0007L62.9856 7.6226ZM60.4851 15.4208L63.0591 13.5483L63.0647 13.5428L60.4851 9.23042V15.4208ZM68.0275 18.8079L70.7529 21.0109L70.7473 21.0274L73.7082 18.7253L76.7083 20.9999L82.5404 17.4641V10.8551L84.8227 8.88896L84.6881 8.73475L83.6731 9.61595L81.1384 7.55615L78.4243 9.99046L79.4785 10.9598V19.0998L79.0692 19.3587L76.7364 17.4806V10.7174L77.6785 9.71508L75.2055 7.56166L72.4969 9.91335L73.5568 10.9432V18.5601L73.0465 18.9511L71.095 17.42V10.3705C71.0668 9.24221 70.2314 8.70084 69.4265 8.17929C68.7895 7.76649 68.1716 7.36611 67.9883 6.69699C67.7135 5.72767 68.8351 5.04474 68.8351 5.04474C68.3765 5.05766 67.9257 5.16459 67.5116 5.35867C66.9172 5.66158 65.7396 6.5593 65.6835 7.75442C65.612 9.1402 66.2124 9.65229 66.81 10.162C67.3833 10.651 67.9541 11.1378 67.9266 12.3917V18.6152L66.7097 19.4909L66.8331 19.6616L68.0275 18.8079ZM190.085 7.63252L190.102 7.62224L190.063 7.5947L190.085 7.63252ZM190.085 7.63252C189.902 7.74172 188.296 8.69744 187.198 9.34057C186.031 10.0235 184.461 10.7725 184.461 10.7725V17.9322L183.373 18.7694L183.513 18.9291L184.534 18.1195L187.73 20.9558L193.282 16.6325L193.153 16.4783L190.102 18.8465L187.579 16.5223V15.6632L192.626 12.0007L190.085 7.63252ZM187.579 15.4208L190.175 13.5483L190.158 13.5428L187.579 9.23042V15.4208ZM164.144 10.778L164.01 10.6238L167.38 7.74341L169.701 10.1722L172.875 7.73239L175.175 10.1942L178.461 7.64427L180.76 10.1722L181.977 9.26347L182.1 9.42869L180.889 10.3374V17.0455L182.145 18.4169L182.964 17.6734L183.109 17.8276L179.728 20.8897L177.216 18.1966L177.805 17.6183V11.7363L176.016 9.8032L175.354 10.3264L175.382 17.5247L176.274 18.4499L173.84 20.8457L171.563 18.3233L172.208 17.6954V11.7804L170.486 9.81422L169.875 10.2989V17.4696L170.89 18.505L168.412 20.9118L165.989 18.2241L166.746 17.5467V11.6207L165.193 9.89132L164.144 10.778ZM157.269 10.591L157.134 10.4368L160.331 7.69956L162.675 10.3872L163.746 9.48398L163.881 9.63819L162.753 10.591V17.222L164.088 18.731L165.036 17.9104L165.17 18.0646L161.952 20.89L159.72 18.362L158.699 19.2212L158.564 19.067L159.535 18.2298V11.4501L158.155 9.84196L157.269 10.591ZM160.488 2.64369L158.065 4.82465L160.022 6.96706L162.462 4.79161L160.488 2.64369ZM154.774 -8.01235e-05C155.559 0.0877674 156.301 0.402049 156.905 0.903146C157.251 1.24901 157.496 1.67999 157.615 2.15091C157.733 2.62183 157.72 3.11536 157.578 3.57978C157.505 3.96548 157.347 4.33092 157.116 4.65056C156.884 4.97019 156.584 5.23631 156.237 5.43029C155.658 5.79394 154.984 5.98521 154.297 5.98104V9.58293L156.092 11.0094L154.297 12.4303V17.387C155.562 16.5723 156.572 15.4282 157.213 14.0825C157.213 14.0825 157.258 13.9614 157.364 13.7245C157.463 14.9 157.236 16.0798 156.708 17.1392C156.161 18.3906 155.219 19.4367 154.022 20.1242C152.404 21.1244 150.449 21.4569 148.583 21.0495C147.546 20.8458 146.564 20.4352 145.695 19.8431C144.827 19.2509 144.092 18.49 143.536 17.6073C142.666 16.214 142.238 14.5976 142.308 12.9645C142.375 9.62148 144.91 6.74107 147.831 5.66711C148.147 5.52056 148.487 5.43101 148.835 5.40275C148.768 5.44749 148.698 5.4964 148.625 5.54801L148.624 5.54813C148.444 5.67437 148.24 5.81671 148.005 5.9535C147.052 6.65395 146.326 7.61033 145.913 8.70724L151.583 6.22337V14.0275L147.013 16.28C147.906 17.2947 149.128 17.9772 150.473 18.2131C151.742 18.3998 153.037 18.1383 154.129 17.4751V12.4358L152.284 11.0149L154.067 9.59394V5.95901C153.106 5.81682 152.155 5.61819 151.218 5.3642C150.841 5.27213 150.136 5.08583 149.371 4.88376L149.371 4.88353C148.077 4.54171 146.613 4.1549 146.278 4.10299C146.005 4.04109 145.721 4.03606 145.446 4.08823C145.171 4.1404 144.91 4.24861 144.68 4.4059C144.466 4.59417 144.308 4.83634 144.224 5.1062C144.14 5.37606 144.133 5.66334 144.203 5.93698C144.304 6.19551 144.468 6.42606 144.68 6.60889C144.479 6.57272 144.288 6.49581 144.119 6.38308C143.77 6.16366 143.481 5.86484 143.275 5.51201C143.069 5.15917 142.952 4.76272 142.936 4.35633C142.89 3.77954 142.998 3.20103 143.247 2.67701C143.497 2.15299 143.88 1.70129 144.36 1.36577C145.232 0.761008 146.301 0.496009 147.36 0.622265C148.355 0.758972 149.545 1.13998 150.763 1.52997C151.606 1.79985 152.462 2.07403 153.276 2.27451C153.59 2.3933 153.924 2.44821 154.26 2.4359C154.595 2.42359 154.925 2.34432 155.228 2.20291C155.442 2.07886 155.598 1.87666 155.661 1.64039C155.724 1.40413 155.689 1.15298 155.564 0.941698C155.211 0.339158 154.588 0.247364 154.005 0.161473C153.885 0.143734 153.766 0.126246 153.652 0.104562C154.016 -0.000628008 154.396 -0.0361541 154.774 -8.01235e-05ZM148.044 15.5035V7.98576L145.74 8.99363C145.345 10.0021 145.179 11.0826 145.252 12.1604C145.389 13.5923 145.926 14.959 146.805 16.1093L148.039 15.509L148.044 15.5035ZM196.271 21.8866L196.244 21.8864C195.157 21.4819 194.805 20.6173 195.587 20.0692C196.748 19.2761 198.082 20.9283 198.082 20.9283C199.652 19.8166 201.295 18.8083 203 17.9102V13.4602L200.841 11.7363C203.511 8.70724 202.815 7.35791 202.557 6.90079C202.602 7.18167 202.669 8.35476 201.15 8.48694C200.18 8.57506 199.322 7.50661 199.322 7.50661C199.322 7.50661 198.144 8.27765 196.989 8.98261C195.834 9.68757 194.364 10.409 194.364 10.409V13.8402L196.366 15.6356L196.261 15.7401C194.621 17.3712 193.553 18.4333 193.921 19.9865C194.029 20.5212 194.322 21.0027 194.75 21.3491C195.172 21.69 195.699 21.8794 196.244 21.8864L196.26 21.8921L196.271 21.8866ZM197.516 16.9905C195.672 16.6201 194.574 18.1754 194.413 18.4227C194.7 17.4637 196.22 16.0646 197.562 14.8289L197.563 14.8285C197.992 14.4336 198.403 14.0553 198.75 13.7135L200.067 14.815V19.3422C200.067 19.3422 199.518 17.3925 197.516 16.9905ZM197.32 12.5735V9.04111C197.761 9.82243 198.473 10.423 199.327 10.734C200.914 11.2021 202.092 9.63249 202.092 9.63249C201.138 11.5436 198.514 13.6034 198.514 13.6034L197.32 12.5735ZM114.594 10.5798L115.576 9.69308L115.716 9.84728L114.762 10.7175V17.8001C114.762 17.8001 112.951 18.7419 111.684 19.4523C110.417 20.1628 109.071 20.9779 109.071 20.9779L105.745 18.2242L104.865 18.9677L104.725 18.8135L105.65 18.0204V10.409C105.65 10.409 107.22 9.7096 108.544 8.9771C109.727 8.32171 111.05 7.56168 111.05 7.56168L114.589 10.5798H114.594ZM108.79 16.8197L111.594 19.3146V11.6758L108.79 9.1203V16.8197ZM121.127 9.86381L123.241 7.74343C123.414 7.88967 123.602 8.01708 123.802 8.12344C124.009 8.2429 124.242 8.31265 124.482 8.32701C124.722 8.34136 124.961 8.29992 125.182 8.20606C125.45 8.06472 125.691 7.87832 125.894 7.65531C125.97 8.31328 125.845 8.97861 125.536 9.56692C125.226 10.1552 124.746 10.64 124.155 10.9598C123.746 11.1581 122.54 11.5105 121.284 10.029V17.6238L122.619 18.7859L123.74 17.8772L123.869 18.0369L120.376 20.9283L117.718 18.5491L116.759 19.4358L116.602 19.2706L118.06 17.9818V11.4059L116.938 9.95193L115.979 10.7836L115.839 10.6293L119.204 7.63879L121.094 9.84178L121.127 9.86381ZM130.038 13.0361L133.963 7.45704C134.346 7.85833 134.836 8.1464 135.377 8.28867C136.599 8.6026 137.659 7.44603 137.659 7.44603C137.457 8.93855 136.683 10.6293 135.096 10.8882C133.694 11.1195 132.393 10.0456 132.393 10.0456L132.141 10.4311L137.564 18.4775L138.646 17.5412L138.786 17.6954L135.062 20.8898L130.055 13.0361H130.038ZM125.653 3.69544C126.309 3.64036 126.813 4.38387 126.813 5.59001V18.0479L125.187 19.4358L125.333 19.59L126.264 18.7859L128.591 20.9283L132.023 17.9818L131.888 17.8276L131.036 18.5546L129.914 17.3925V0.754446L125.653 3.69544ZM89.9761 3.54674C90.7276 3.56326 91.193 4.21314 91.193 5.31463H91.2098V9.69308C90.1387 9.80873 89.2864 9.97396 88.5798 10.9378C88.2902 11.3534 88.1452 11.8499 88.1664 12.3531C88.1876 12.8563 88.3739 13.3393 88.6976 13.7301C88.8668 13.9398 89.0853 14.106 89.3344 14.2144C89.5835 14.3228 89.8557 14.3701 90.1275 14.3524C90.1275 14.3524 89.1854 13.9779 89.606 13.1518C89.8808 12.6065 91.1369 12.5239 91.2042 12.8213V20.2179C91.2042 20.2179 88.8434 21.0109 88.7873 23.0157C88.7367 23.6886 88.8897 24.3612 89.2269 24.949C89.5641 25.5369 90.0705 26.0139 90.6827 26.3201C92.2327 26.9671 94.2969 26.528 96.3496 26.0912C97.2675 25.896 98.1831 25.7012 99.0494 25.6042C100.334 25.461 100.721 25.6427 100.894 26.1935C101.236 27.317 100.042 27.9999 100.042 27.9999C100.042 27.9999 102.487 27.6695 103.014 25.7694C103.328 24.756 103.334 23.2855 101.298 22.3548C100.139 21.8257 97.8265 22.2634 95.6659 22.6723C93.6656 23.0508 91.7957 23.4047 91.0921 22.9441C90.8049 22.7777 90.5895 22.5141 90.4862 22.2028C90.3829 21.8915 90.399 21.5538 90.5313 21.2533C91.165 19.7883 93.6884 20.1022 95.2922 20.339C95.9147 20.4277 96.5589 20.6029 97.2088 20.7797C98.8189 21.2176 100.464 21.665 101.898 20.8292C102.807 20.2784 102.958 19.3201 103.02 18.3839V4.00936L104.242 2.97396L104.108 2.81975L102.941 3.81109L100.435 1.6081L97.0138 4.31227V1.79536H96.8119V20.4547C96.8119 20.4547 96.2736 20.3225 95.8362 20.2234C95.3988 20.1242 94.7707 20.0526 94.7707 20.0526V4.57663C94.8184 3.93601 94.6274 3.30021 94.2333 2.78756C93.8393 2.27492 93.269 1.92035 92.6286 1.78985C92.0503 1.64769 91.4428 1.66895 90.8763 1.85117C90.3098 2.03339 89.8072 2.36916 89.4266 2.81975C89.1412 3.10953 88.9229 3.45633 88.7865 3.83651C88.65 4.21669 88.5986 4.62129 88.6359 5.02274C88.6359 5.02274 88.8938 3.54674 89.9761 3.54674ZM97.9077 20.5356C97.6117 20.5917 97.3069 20.5847 97.0138 20.5153V12.8819C97.1649 12.7027 97.3519 12.556 97.5632 12.4509C97.7744 12.3457 98.0055 12.2843 98.2419 12.2706C98.4734 12.2819 98.6999 12.3402 98.9074 12.4416C99.1149 12.543 99.2988 12.6854 99.4476 12.8599V18.6262C99.4577 18.9235 99.3983 19.2191 99.2739 19.4902C99.1494 19.7614 98.9633 20.0009 98.7298 20.1903C98.484 20.3618 98.2037 20.4796 97.9077 20.5356ZM97.8101 3.9653L99.4476 5.38072V9.9354C99.2983 10.1089 99.1141 10.2503 98.9067 10.3507C98.6993 10.4512 98.473 10.5085 98.2419 10.5192C98.0059 10.5061 97.7751 10.4456 97.5639 10.3414C97.3526 10.2372 97.1654 10.0915 97.0138 9.91337V4.57663L97.8101 3.9653ZM98.8979 10.66C99.1058 10.5654 99.2926 10.4315 99.4476 10.2659V12.5184C99.2886 12.3586 99.0983 12.232 98.8881 12.1465C98.6779 12.061 98.4522 12.0182 98.2247 12.0208C97.9972 12.0233 97.7726 12.0712 97.5645 12.1615C97.3563 12.2517 97.169 12.3825 97.0138 12.5459V10.2659C97.3329 10.5986 97.7714 10.7962 98.2363 10.8166C98.4652 10.8077 98.69 10.7545 98.8979 10.66Z" fill="white"/>
</g>
<defs>
<clipPath id="clip0_19288_4148">
<rect width="203" height="28" fill="white"/>
</clipPath>
</defs>
</svg>
