<svg width="88" height="28" viewBox="0 0 88 28" fill="none" xmlns="http://www.w3.org/2000/svg">
<path d="M10.325 3.83335H16.0719L24.1883 23.3912H18.1141L12.9825 10.405L9.59191 18.9272H13.6239L15.2341 23.3912H2.117L10.325 3.83335ZM30.9563 7.89153C31.5454 7.89153 32.1868 7.9439 32.8283 8.10099V3.25735H37.9076V22.5272C36.7425 23.0508 34.229 23.6923 31.7156 23.6923C27.1599 23.6923 23.2457 21.1003 23.2457 15.9294C23.2457 10.7584 27.0159 7.90463 30.9563 7.90463V7.89153ZM31.5977 19.5032C32.069 19.5032 32.4486 19.4115 32.8283 19.2937V12.1984C32.4486 12.0544 32.069 11.989 31.5716 11.989C29.909 11.989 28.3643 13.2195 28.3643 15.8115C28.3643 18.4035 29.9352 19.4901 31.5977 19.4901V19.5032ZM46.9534 7.89153C51.1817 7.89153 54.7817 10.7454 54.7817 15.7723C54.7817 20.7992 51.1948 23.653 46.9534 23.653C42.7119 23.653 39.0988 20.7992 39.0988 15.7723C39.0988 10.7454 42.6596 7.89153 46.9534 7.89153ZM46.9534 19.4246C48.4065 19.4246 49.7548 18.2595 49.7548 15.7723C49.7548 13.285 48.4065 12.1199 46.9534 12.1199C45.5003 12.1199 44.1781 13.285 44.1781 15.7723C44.1781 18.2595 45.4348 19.4246 46.9534 19.4246ZM55.9992 3.25735H61.1046V8.10099C61.7199 7.98317 62.3614 7.89153 63.0028 7.89153C66.9694 7.89153 70.6479 10.4835 70.6479 15.5628C70.6479 20.9301 66.7337 23.653 62.0996 23.653C60.1097 23.653 57.5701 23.2472 55.9992 22.5141V3.24426V3.25735ZM62.2174 19.477C63.9716 19.477 65.5686 18.2203 65.5686 15.6283C65.5686 13.2064 63.9977 12.0675 62.2959 12.0675C61.8246 12.0675 61.445 12.1199 61.1046 12.277V19.2806C61.3926 19.3984 61.7723 19.4901 62.2174 19.4901V19.477ZM79.3141 7.89153C83.1367 7.89153 86.645 10.3395 86.645 15.2748C86.645 15.9424 86.6188 16.5839 86.5272 17.2254H77.0101C77.5337 18.9534 79.0523 19.765 80.9505 19.765C82.4952 19.765 83.9221 19.3854 85.5323 18.6915V22.5795C84.0399 23.3388 82.2596 23.653 80.4268 23.653C75.5832 23.653 71.813 20.7337 71.813 15.7723C71.813 10.8108 75.2297 7.89153 79.3141 7.89153ZM81.8799 14.0443C81.6181 12.3817 80.5054 11.7141 79.3665 11.7141C78.2276 11.7141 77.2981 12.421 76.9185 14.0443H81.8799Z" fill="white"/>
</svg>
