<svg viewBox="0 0 560 340" xmlns="http://www.w3.org/2000/svg" role="img" aria-label="Cron batch export schedule · 7-day weekly view">
  <!-- header label -->
  <text x="30" y="34" fill="#6EF76E" font-size="11" font-family="JetBrains Mono" letter-spacing="2">
    CRON · 03:00 · OFF-PEAK
  </text>
  <line x1="30" x2="530" y1="48" y2="48" stroke="#ffffff" stroke-opacity="0.12"/>

  <!-- MON -->
  <text x="30" y="90" fill="#ffffff" opacity="0.55" font-size="11" font-family="JetBrains Mono" letter-spacing="1.5">MON</text>
  <rect x="90" y="80" width="420" height="14" rx="2" fill="#ffffff" fill-opacity="0.04" stroke="#ffffff" stroke-opacity="0.1"/>
  <rect x="110" y="80" width="26" height="14" rx="2" fill="#6EF76E"/>
  <text x="520" y="90" fill="#ffffff" opacity="0.55" font-size="9" font-family="JetBrains Mono" text-anchor="end">03:00 · auto</text>

  <!-- TUE -->
  <text x="30" y="124" fill="#ffffff" opacity="0.55" font-size="11" font-family="JetBrains Mono" letter-spacing="1.5">TUE</text>
  <rect x="90" y="114" width="420" height="14" rx="2" fill="#ffffff" fill-opacity="0.04" stroke="#ffffff" stroke-opacity="0.1"/>
  <rect x="120" y="114" width="26" height="14" rx="2" fill="#6EF76E"/>
  <text x="520" y="124" fill="#ffffff" opacity="0.55" font-size="9" font-family="JetBrains Mono" text-anchor="end">03:00 · auto</text>

  <!-- WED -->
  <text x="30" y="158" fill="#ffffff" opacity="0.55" font-size="11" font-family="JetBrains Mono" letter-spacing="1.5">WED</text>
  <rect x="90" y="148" width="420" height="14" rx="2" fill="#ffffff" fill-opacity="0.04" stroke="#ffffff" stroke-opacity="0.1"/>
  <rect x="130" y="148" width="26" height="14" rx="2" fill="#6EF76E"/>
  <text x="520" y="158" fill="#ffffff" opacity="0.55" font-size="9" font-family="JetBrains Mono" text-anchor="end">03:00 · auto</text>

  <!-- THU -->
  <text x="30" y="192" fill="#ffffff" opacity="0.55" font-size="11" font-family="JetBrains Mono" letter-spacing="1.5">THU</text>
  <rect x="90" y="182" width="420" height="14" rx="2" fill="#ffffff" fill-opacity="0.04" stroke="#ffffff" stroke-opacity="0.1"/>
  <rect x="140" y="182" width="26" height="14" rx="2" fill="#6EF76E"/>
  <text x="520" y="192" fill="#ffffff" opacity="0.55" font-size="9" font-family="JetBrains Mono" text-anchor="end">03:00 · auto</text>

  <!-- FRI -->
  <text x="30" y="226" fill="#ffffff" opacity="0.55" font-size="11" font-family="JetBrains Mono" letter-spacing="1.5">FRI</text>
  <rect x="90" y="216" width="420" height="14" rx="2" fill="#ffffff" fill-opacity="0.04" stroke="#ffffff" stroke-opacity="0.1"/>
  <rect x="150" y="216" width="26" height="14" rx="2" fill="#6EF76E"/>
  <text x="520" y="226" fill="#ffffff" opacity="0.55" font-size="9" font-family="JetBrains Mono" text-anchor="end">03:00 · auto</text>

  <!-- SAT -->
  <text x="30" y="260" fill="#ffffff" opacity="0.55" font-size="11" font-family="JetBrains Mono" letter-spacing="1.5">SAT</text>
  <rect x="90" y="250" width="420" height="14" rx="2" fill="#ffffff" fill-opacity="0.04" stroke="#ffffff" stroke-opacity="0.1"/>
  <rect x="160" y="250" width="26" height="14" rx="2" fill="#6EF76E"/>
  <text x="520" y="260" fill="#ffffff" opacity="0.55" font-size="9" font-family="JetBrains Mono" text-anchor="end">03:00 · auto</text>

  <!-- SUN -->
  <text x="30" y="294" fill="#ffffff" opacity="0.55" font-size="11" font-family="JetBrains Mono" letter-spacing="1.5">SUN</text>
  <rect x="90" y="284" width="420" height="14" rx="2" fill="#ffffff" fill-opacity="0.04" stroke="#ffffff" stroke-opacity="0.1"/>
  <rect x="170" y="284" width="26" height="14" rx="2" fill="#6EF76E"/>
  <text x="520" y="294" fill="#ffffff" opacity="0.55" font-size="9" font-family="JetBrains Mono" text-anchor="end">03:00 · auto</text>
</svg>
