<svg viewBox="0 0 720 520" xmlns="http://www.w3.org/2000/svg" role="img" aria-label="parents, students, schools · relational schema">
  <!-- ============================================================
       Rebuild with 3 entity tables + dashed FK connectors + labels
       parents (left, small), students (center pivot, tallest),
       schools (right, small). Designed for LIGHT background.
       ============================================================ -->

  <!-- PARENTS table (x=0, y=80, w=218) -->
  <rect x="0" y="80" width="218" height="178" rx="3" fill="#ffffff" stroke="#10132C" stroke-opacity="0.12"/>
  <rect x="0" y="80" width="218" height="4" rx="2" fill="#3F4AAF"/>
  <text x="18" y="107" fill="#10132C" font-family="JetBrains Mono" font-size="13" font-weight="700" letter-spacing="0.5">parents</text>
  <text x="200" y="107" fill="#10132C" fill-opacity="0.45" font-family="JetBrains Mono" font-size="10" letter-spacing="1.5" text-anchor="end">1 : MANY</text>
  <line x1="0" x2="218" y1="124" y2="124" stroke="#10132C" stroke-opacity="0.08"/>

  <!-- parents: id (PK) -->
  <rect x="14" y="134" width="16" height="12" rx="2" fill="#FF5A31" opacity="0.9"/>
  <text x="22" y="143" font-size="8" font-family="JetBrains Mono" font-weight="700" fill="#ffffff" text-anchor="middle" letter-spacing="0.5">PK</text>
  <text x="40" y="144" fill="#10132C" font-family="JetBrains Mono" font-size="12">id</text>
  <text x="202" y="144" fill="#10132C" fill-opacity="0.45" font-family="JetBrains Mono" font-size="11" text-anchor="end">uuid</text>

  <!-- parents: email -->
  <rect x="1" y="155" width="216" height="29" fill="#3F4AAF" fill-opacity="0.025"/>
  <circle cx="22" cy="169" r="2" fill="#10132C" fill-opacity="0.25"/>
  <text x="40" y="173" fill="#10132C" font-family="JetBrains Mono" font-size="12">email</text>
  <text x="202" y="173" fill="#10132C" fill-opacity="0.45" font-family="JetBrains Mono" font-size="11" text-anchor="end">text</text>

  <!-- parents: phone -->
  <circle cx="22" cy="199" r="2" fill="#10132C" fill-opacity="0.25"/>
  <text x="40" y="203" fill="#10132C" font-family="JetBrains Mono" font-size="12">phone</text>
  <text x="202" y="203" fill="#10132C" fill-opacity="0.45" font-family="JetBrains Mono" font-size="11" text-anchor="end">text</text>

  <!-- parents: created_at -->
  <rect x="1" y="215" width="216" height="29" fill="#3F4AAF" fill-opacity="0.025"/>
  <circle cx="22" cy="229" r="2" fill="#10132C" fill-opacity="0.25"/>
  <text x="40" y="233" fill="#10132C" font-family="JetBrains Mono" font-size="12">created_at</text>
  <text x="202" y="233" fill="#10132C" fill-opacity="0.45" font-family="JetBrains Mono" font-size="11" text-anchor="end">ts</text>

  <!-- STUDENTS table (x=251, y=32, w=218, 6 fields) -->
  <rect x="251" y="32" width="218" height="238" rx="3" fill="#ffffff" stroke="#10132C" stroke-opacity="0.12"/>
  <rect x="251" y="32" width="218" height="4" rx="2" fill="#10132C"/>
  <text x="269" y="59" fill="#10132C" font-family="JetBrains Mono" font-size="13" font-weight="700" letter-spacing="0.5">students</text>
  <text x="451" y="59" fill="#10132C" fill-opacity="0.45" font-family="JetBrains Mono" font-size="10" letter-spacing="1.5" text-anchor="end">PIVOT</text>
  <line x1="251" x2="469" y1="76" y2="76" stroke="#10132C" stroke-opacity="0.08"/>

  <!-- students: id (PK) at y=86..116 -->
  <rect x="265" y="86" width="16" height="12" rx="2" fill="#FF5A31" opacity="0.9"/>
  <text x="273" y="95" font-size="8" font-family="JetBrains Mono" font-weight="700" fill="#ffffff" text-anchor="middle" letter-spacing="0.5">PK</text>
  <text x="291" y="96" fill="#10132C" font-family="JetBrains Mono" font-size="12">id</text>
  <text x="453" y="96" fill="#10132C" fill-opacity="0.45" font-family="JetBrains Mono" font-size="11" text-anchor="end">uuid</text>

  <!-- students: parent_id (FK) -->
  <rect x="252" y="107" width="216" height="29" fill="#3F4AAF" fill-opacity="0.025"/>
  <rect x="265" y="116" width="16" height="12" rx="2" fill="#3F4AAF" opacity="0.92"/>
  <text x="273" y="125" font-size="8" font-family="JetBrains Mono" font-weight="700" fill="#ffffff" text-anchor="middle" letter-spacing="0.5">FK</text>
  <text x="291" y="126" fill="#10132C" font-family="JetBrains Mono" font-size="12">parent_id</text>
  <text x="453" y="126" fill="#3F4AAF" font-family="JetBrains Mono" font-size="11" text-anchor="end">parents</text>

  <!-- students: school_id (FK) -->
  <rect x="265" y="146" width="16" height="12" rx="2" fill="#3F4AAF" opacity="0.92"/>
  <text x="273" y="155" font-size="8" font-family="JetBrains Mono" font-weight="700" fill="#ffffff" text-anchor="middle" letter-spacing="0.5">FK</text>
  <text x="291" y="156" fill="#10132C" font-family="JetBrains Mono" font-size="12">school_id</text>
  <text x="453" y="156" fill="#3F4AAF" font-family="JetBrains Mono" font-size="11" text-anchor="end">schools</text>

  <!-- students: grade -->
  <rect x="252" y="167" width="216" height="29" fill="#3F4AAF" fill-opacity="0.025"/>
  <circle cx="273" cy="181" r="2" fill="#10132C" fill-opacity="0.25"/>
  <text x="291" y="186" fill="#10132C" font-family="JetBrains Mono" font-size="12">grade</text>
  <text x="453" y="186" fill="#10132C" fill-opacity="0.45" font-family="JetBrains Mono" font-size="11" text-anchor="end">int</text>

  <!-- students: sibling_of (FK) -->
  <rect x="265" y="206" width="16" height="12" rx="2" fill="#3F4AAF" opacity="0.92"/>
  <text x="273" y="215" font-size="8" font-family="JetBrains Mono" font-weight="700" fill="#ffffff" text-anchor="middle" letter-spacing="0.5">FK</text>
  <text x="291" y="216" fill="#10132C" font-family="JetBrains Mono" font-size="12">sibling_of</text>
  <text x="453" y="216" fill="#3F4AAF" font-family="JetBrains Mono" font-size="11" text-anchor="end">students</text>

  <!-- students: sic -->
  <rect x="252" y="227" width="216" height="29" fill="#3F4AAF" fill-opacity="0.025"/>
  <circle cx="273" cy="241" r="2" fill="#10132C" fill-opacity="0.25"/>
  <text x="291" y="246" fill="#10132C" font-family="JetBrains Mono" font-size="12">sic</text>
  <text x="453" y="246" fill="#10132C" fill-opacity="0.45" font-family="JetBrains Mono" font-size="11" text-anchor="end">text</text>

  <!-- SCHOOLS table (x=502, y=108, w=218, 4 fields) -->
  <rect x="502" y="108" width="218" height="178" rx="3" fill="#ffffff" stroke="#10132C" stroke-opacity="0.12"/>
  <rect x="502" y="108" width="218" height="4" rx="2" fill="#3F4AAF"/>
  <text x="520" y="135" fill="#10132C" font-family="JetBrains Mono" font-size="13" font-weight="700" letter-spacing="0.5">schools</text>
  <text x="702" y="135" fill="#10132C" fill-opacity="0.45" font-family="JetBrains Mono" font-size="10" letter-spacing="1.5" text-anchor="end">1 : MANY</text>
  <line x1="502" x2="720" y1="152" y2="152" stroke="#10132C" stroke-opacity="0.08"/>

  <!-- schools: id (PK) -->
  <rect x="516" y="162" width="16" height="12" rx="2" fill="#FF5A31" opacity="0.9"/>
  <text x="524" y="171" font-size="8" font-family="JetBrains Mono" font-weight="700" fill="#ffffff" text-anchor="middle" letter-spacing="0.5">PK</text>
  <text x="542" y="172" fill="#10132C" font-family="JetBrains Mono" font-size="12">id</text>
  <text x="704" y="172" fill="#10132C" fill-opacity="0.45" font-family="JetBrains Mono" font-size="11" text-anchor="end">uuid</text>

  <!-- schools: name -->
  <rect x="503" y="183" width="216" height="29" fill="#3F4AAF" fill-opacity="0.025"/>
  <circle cx="524" cy="197" r="2" fill="#10132C" fill-opacity="0.25"/>
  <text x="542" y="202" fill="#10132C" font-family="JetBrains Mono" font-size="12">name</text>
  <text x="704" y="202" fill="#10132C" fill-opacity="0.45" font-family="JetBrains Mono" font-size="11" text-anchor="end">text</text>

  <!-- schools: sic_codes -->
  <circle cx="524" cy="227" r="2" fill="#10132C" fill-opacity="0.25"/>
  <text x="542" y="232" fill="#10132C" font-family="JetBrains Mono" font-size="12">sic_codes</text>
  <text x="704" y="232" fill="#10132C" fill-opacity="0.45" font-family="JetBrains Mono" font-size="11" text-anchor="end">text[]</text>

  <!-- schools: region -->
  <rect x="503" y="243" width="216" height="29" fill="#3F4AAF" fill-opacity="0.025"/>
  <circle cx="524" cy="257" r="2" fill="#10132C" fill-opacity="0.25"/>
  <text x="542" y="262" fill="#10132C" font-family="JetBrains Mono" font-size="12">region</text>
  <text x="704" y="262" fill="#10132C" fill-opacity="0.45" font-family="JetBrains Mono" font-size="11" text-anchor="end">text</text>

  <!-- FK connector · parents.id (218, 144) → students.parent_id (251, 121) -->
  <path d="M 218 144 C 228 144 241 121 251 121" fill="none" stroke="#3F4AAF" stroke-width="1.3" stroke-dasharray="4 5" stroke-opacity="0.85"/>
  <path d="M 245 117 L 251 121 L 245 125" fill="none" stroke="#3F4AAF" stroke-width="1.3"/>
  <rect x="212.5" y="122.5" width="44" height="18" rx="2" fill="#ffffff" stroke="#3F4AAF" stroke-opacity="0.25"/>
  <text x="234.5" y="135.5" fill="#3F4AAF" font-family="JetBrains Mono" font-size="10" font-weight="700" text-anchor="middle" letter-spacing="0.5">1 : N</text>

  <!-- FK connector · schools.id (502, 172) → students.school_id (469, 151) -->
  <path d="M 502 172 C 492 172 479 151 469 151" fill="none" stroke="#3F4AAF" stroke-width="1.3" stroke-dasharray="4 5" stroke-opacity="0.85"/>
  <path d="M 475 147 L 469 151 L 475 155" fill="none" stroke="#3F4AAF" stroke-width="1.3"/>
  <rect x="463.5" y="152.5" width="44" height="18" rx="2" fill="#ffffff" stroke="#3F4AAF" stroke-opacity="0.25"/>
  <text x="485.5" y="165.5" fill="#3F4AAF" font-family="JetBrains Mono" font-size="10" font-weight="700" text-anchor="middle" letter-spacing="0.5">1 : N</text>

  <!-- Self-ref sibling_of loop on students (right side) -->
  <path d="M 469 212 C 497 212 497 96 469 96" fill="none" stroke="#3F4AAF" stroke-opacity="0.5" stroke-width="1" stroke-dasharray="3 5"/>
  <text x="501" y="157" fill="#3F4AAF" fill-opacity="0.55" font-family="JetBrains Mono" font-size="9">self</text>
</svg>
