<svg viewBox="0 0 560 340" xmlns="http://www.w3.org/2000/svg" role="img" aria-label="Legacy integration layer · middleware adapter pattern">
  <!-- LEFT column · LEGACY -->
  <text x="20" y="30" fill="#E04F4F" font-size="10" font-family="JetBrains Mono" letter-spacing="2">
    LEGACY · STAYS LIVE
  </text>

  <g>
    <rect x="20" y="56" width="120" height="28" rx="2" fill="#E04F4F" fill-opacity="0.05" stroke="#E04F4F" stroke-opacity="0.55"/>
    <text x="34" y="74" fill="#ffffff" font-size="11" font-family="Inter" font-weight="500">GlobalJade</text>
  </g>
  <g>
    <rect x="20" y="100" width="120" height="28" rx="2" fill="#E04F4F" fill-opacity="0.05" stroke="#E04F4F" stroke-opacity="0.55"/>
    <text x="34" y="118" fill="#ffffff" font-size="11" font-family="Inter" font-weight="500">ImageDB</text>
  </g>
  <g>
    <rect x="20" y="144" width="120" height="28" rx="2" fill="#E04F4F" fill-opacity="0.05" stroke="#E04F4F" stroke-opacity="0.55"/>
    <text x="34" y="162" fill="#ffffff" font-size="11" font-family="Inter" font-weight="500">The Hub</text>
  </g>
  <g>
    <rect x="20" y="188" width="120" height="28" rx="2" fill="#E04F4F" fill-opacity="0.05" stroke="#E04F4F" stroke-opacity="0.55"/>
    <text x="34" y="206" fill="#ffffff" font-size="11" font-family="Inter" font-weight="500">CRM</text>
  </g>
  <g>
    <rect x="20" y="232" width="120" height="28" rx="2" fill="#E04F4F" fill-opacity="0.05" stroke="#E04F4F" stroke-opacity="0.55"/>
    <text x="34" y="250" fill="#ffffff" font-size="11" font-family="Inter" font-weight="500">eWay</text>
  </g>

  <!-- Connectors legacy → middleware -->
  <path d="M 140 70 Q 180 70 230 162" fill="none" stroke="#E04F4F" stroke-opacity="0.45"/>
  <path d="M 140 114 Q 180 114 230 166" fill="none" stroke="#E04F4F" stroke-opacity="0.45"/>
  <path d="M 140 158 Q 180 158 230 170" fill="none" stroke="#E04F4F" stroke-opacity="0.45"/>
  <path d="M 140 202 Q 180 202 230 174" fill="none" stroke="#E04F4F" stroke-opacity="0.45"/>
  <path d="M 140 246 Q 180 246 230 178" fill="none" stroke="#E04F4F" stroke-opacity="0.45"/>

  <!-- MIDDLEWARE box -->
  <rect x="230" y="94" width="120" height="180" rx="3" fill="#6EF76E" fill-opacity="0.04" stroke="#6EF76E" stroke-width="1.5"/>
  <text x="290" y="120" fill="#ffffff" font-size="12" font-weight="700" font-family="Golos Text" text-anchor="middle">MIDDLEWARE</text>
  <text x="290" y="136" fill="#6EF76E" font-size="9" font-family="JetBrains Mono" letter-spacing="1.5" text-anchor="middle">ADAPTER · .NET</text>
  <line x1="246" x2="334" y1="148" y2="148" stroke="#ffffff" stroke-opacity="0.08"/>

  <!-- protocols list -->
  <circle cx="252" cy="162" r="2" fill="#6EF76E" opacity="0.5"/>
  <text x="260" y="166" fill="#ffffff" opacity="0.85" font-size="10" font-family="JetBrains Mono">REST</text>
  <circle cx="252" cy="176" r="2" fill="#6EF76E" opacity="0.56"/>
  <text x="260" y="180" fill="#ffffff" opacity="0.85" font-size="10" font-family="JetBrains Mono">GraphQL</text>
  <circle cx="252" cy="190" r="2" fill="#6EF76E" opacity="0.62"/>
  <text x="260" y="194" fill="#ffffff" opacity="0.85" font-size="10" font-family="JetBrains Mono">SOAP</text>
  <circle cx="252" cy="204" r="2" fill="#6EF76E" opacity="0.68"/>
  <text x="260" y="208" fill="#ffffff" opacity="0.85" font-size="10" font-family="JetBrains Mono">webhooks</text>
  <circle cx="252" cy="218" r="2" fill="#6EF76E" opacity="0.74"/>
  <text x="260" y="222" fill="#ffffff" opacity="0.85" font-size="10" font-family="JetBrains Mono">Kafka/SQS</text>
  <circle cx="252" cy="232" r="2" fill="#6EF76E" opacity="0.8"/>
  <text x="260" y="236" fill="#ffffff" opacity="0.85" font-size="10" font-family="JetBrains Mono">SFTP</text>
  <circle cx="252" cy="246" r="2" fill="#6EF76E" opacity="0.86"/>
  <text x="260" y="250" fill="#ffffff" opacity="0.85" font-size="10" font-family="JetBrains Mono">EDI</text>

  <!-- Connectors middleware → new -->
  <path d="M 350 162 Q 390 70 430 70" fill="none" stroke="#6EF76E" stroke-opacity="0.6"/>
  <path d="M 350 166 Q 390 114 430 114" fill="none" stroke="#6EF76E" stroke-opacity="0.6"/>
  <path d="M 350 170 Q 390 158 430 158" fill="none" stroke="#6EF76E" stroke-opacity="0.6"/>
  <path d="M 350 174 Q 390 202 430 202" fill="none" stroke="#6EF76E" stroke-opacity="0.6"/>
  <path d="M 350 178 Q 390 246 430 246" fill="none" stroke="#6EF76E" stroke-opacity="0.6"/>

  <!-- RIGHT column · NEW -->
  <text x="430" y="30" fill="#6EF76E" font-size="10" font-family="JetBrains Mono" letter-spacing="2">
    NEW · PRODUCTION
  </text>
  <g>
    <rect x="430" y="56" width="120" height="28" rx="2" fill="#6EF76E" fill-opacity="0.05" stroke="#6EF76E" stroke-opacity="0.7"/>
    <text x="444" y="74" fill="#ffffff" font-size="11" font-family="Inter" font-weight="500">Pimcore MDM</text>
  </g>
  <g>
    <rect x="430" y="100" width="120" height="28" rx="2" fill="#6EF76E" fill-opacity="0.05" stroke="#6EF76E" stroke-opacity="0.7"/>
    <text x="444" y="118" fill="#ffffff" font-size="11" font-family="Inter" font-weight="500">Hyvä Commerce</text>
  </g>
  <g>
    <rect x="430" y="144" width="120" height="28" rx="2" fill="#6EF76E" fill-opacity="0.05" stroke="#6EF76E" stroke-opacity="0.7"/>
    <text x="444" y="162" fill="#ffffff" font-size="11" font-family="Inter" font-weight="500">Portal</text>
  </g>
  <g>
    <rect x="430" y="188" width="120" height="28" rx="2" fill="#6EF76E" fill-opacity="0.05" stroke="#6EF76E" stroke-opacity="0.7"/>
    <text x="444" y="206" fill="#ffffff" font-size="11" font-family="Inter" font-weight="500">Batch Engine</text>
  </g>
  <g>
    <rect x="430" y="232" width="120" height="28" rx="2" fill="#6EF76E" fill-opacity="0.05" stroke="#6EF76E" stroke-opacity="0.7"/>
    <text x="444" y="250" fill="#ffffff" font-size="11" font-family="Inter" font-weight="500">ID Builder</text>
  </g>
</svg>
